<svg xmlns="http://www.w3.org/2000/svg" width="512" height="250" fill="#7c7c7c" stroke="#fff" stroke-linecap="round" stroke-linejoin="round" stroke-width=".1" baseprofile="tiny" version="1.2" viewbox="0 0 512 250"><path d="m17.937 2.564 4.032-.302L26 1.96l4.032-.301 4.031-.302 4.032-.302 4.032-.302 4.032-.302L50.19.15 51.8 0l-.89 2.121-.676.796 6.681 2.085 6.683 2.085 6.682 2.085 6.681 2.086 6.681 2.085 6.682 2.086 6.682 2.085 6.682 2.086 4.98-.01 4.98-.009 4.98-.009 4.979-.009 4.98-.009 4.98-.01 4.98-.009 4.979-.009.009-1.584.009-1.585.01-1.585.009-1.585 3.096.017 3.097.016 3.098.016 3.097.016 3.098.016 3.097.016 3.097.016 3.097.017.11.024.132.056 1.255 1.204 1.286 1.893 1.517 1.32 1.746.75 2.979 2.208 4.208 3.667 3.356 2.444 2.503 1.222 1.681 1.051.859.882 1.155 1.912 2.177 4.414v2.026l.833 1.92 1.666 2.488 1.456 1.465 1.246.44 1.362.882 1.479 1.32 1.702.888 1.928.452 2.662 1.186 3.396 1.919 2.328.98 1.26.042 1.103-.616.946-1.273.93-.82.914-.366.37-.586-.17-.808.617-1.812 1.406-2.818 1.68-1.527 1.954-.236 1.277-.529.6-.822 1.044-.087 1.492.647 2.425.416 3.362.187 1.982-.064.605-.313.315.016.024.346.498.146.971-.052.846.483 1.082 1.528 3.728 2.447.004.002.315.84 1.299 1.211 2.388 1.863 1.352 1.605.315 1.35 1.22 2.133 2.124 2.919.947 1.573-.231.227.167.821.567 1.416 1.053 1.198 1.54.982 1.558 1.762 1.575 2.544 1.907 1.935 2.24 1.325 1.268 1.234.296 1.14-.022.977-.341.814.144.772.63.73.21.896-.247 1.246.017.352h0l.183.282 1.988 2.14 1.022 1.731.81 2.761.005.025.906 1.652 1.303.676 2.002.25 1.52.574 1.04.902 1.313.544 1.584.187 1.518.594 1.452 1.003 2.709.659 3.964.315 3.018.816 2.07 1.315.911.268.246.018.119-.2.156-.373.801-.428 1.91-.28-.256 2.91-.852 2.387-2.806 4.965-1.17 3.079-2.262 8.8-.696 5.767-.163 2.715-.198.385.215.4-.542 6.003.291 5.125-.185.794-.822 1.546-.58 2.139.229.95-.012.659.847 3.255.269 2.443 2.515 4.19 1.412 1.46 1.752 1.267.643.715-.315 1.78-.714.9-.304 1.429-.352-1.183.137-1.533.558-.824.02-.604-1.031-.644-1.885-2.108-2.303-3.729 1.638 5.96.563.955.437.397.733.419.19.647.007.479 2.02 4.143 2.286 4.281.121 1.17.915 1.438 5.815 6.012 3.56 4.488 1.235 4.262.747 1.33.363 1.82 2.333 2.038.713 1.316 1.25.73 1.009 2.207 1.9 1.291-.453.024-1.661-.652.11.43 1.4.915 2.737.903.683.002-1.08-.469-.914-.63.32-.091 1.912.785 5.348.26 2.355 1.833 3.051.79 1.641 2.34 1.909 2.446 1.217.116.951.01 2.864-.414 4.45-1.538 1.533-.753 2.987-1.022 4.571-.188 1.417.287 3.418-.637 1.63-.782.565-.71.266-.523 3.167-.749.624-.148 3.21-.135 1.55-.275 1.823-.162 1.316 1.1-.001.538-.877.51.41.492 1.559.816 2.863.33.926-.132 1.318-1.202 2.328-1.164-.05-1.355-.416-.742-.676-.046-.162-.416.473-.996-.125-.335-1.444.955-.333-.003.16-.446.299-.354 4.237-2.081 1.084-.855 1.464-.753 3.04-2.827.65-5.32.607-.931 2.015-1.633.216-.492.131-1.112-.056-2.794.114-2.198-.082-2.484.362-2.218.328-.617 1.156-3.549 2.398-1.57 4.16-1.857.956-.31 13.26-1.965 1.86-.48 2.279-1.275 1.665-.432 3.039.035.933-.17.184-.176.005-.17.56-.174 1.758.166 3.284.769 1.197.192 2.935.893 3.235.36.464-.156.428-.272.328-.52-.338-.454-.314.035-.548.244-.652.024-1.281-.374.256-.314 1.307.03.835-.152 1.24-.55 1.32.412 1.734 1.823 1.234.58.099 2.64.186.482.452.698-.616 2.047-.693 1.693-.867 1.39-1.879 2.186-2.277 1.747-2.82 3.887-.646 1.82.02 1.46.477 1.41-.138.521-.345.526-.573-.046-1.112.676-1.435 2.006-.034.612.63.56.818-.269 1.066-.024.595-.166.63.044-.141 1.15-.676.817-.426.256-.762.14-.853.464-.439.428.042 1.331.474.104 1.005-.993.582.05.118.418-1.303 3.4-.838 3.493-1.134 2.022-.399 2.943-.595 1.255-.693 1.24-.405-.068-1.094-2.353-1.119-.606-.245-.572.639-2.851-.29-1.58-.593.063-.746.866-.987.752.02 1.085-1.132 1.805-.281.594-1.081-.14-1.253.078-.87.435-.89 2.19-2.217 3.083-.884 1.495-.72.518-.569.2-.631-.353-1.52-.846-1.17.407-.406.97.012 1.227-2.96-.002-5.033-.005-6.408-.005-6.177-.006-5.172-.004-.018 2.757-.017 2.441-.02 2.748-2.853-.023-3.016-.025.243.274 1.03.516 1.34 1.233 1.582 1.917 1.916 1.527 2.252 1.137 1.484 1.113.715 1.088.36.927.004.766.822.605 1.475.398.762.684v.56l-.467 1.266-.137 1.396.179 1.263-1.054.02-2.554.003-3.894.003-3.581.003-2.82.002-4.264.004-1.167 1.942-1.942 3.228-1.76 2.926-1.48 2.461-.24.647-.001.525 1.825 2.304-.337.668-.642.35-.201.54.04.878-.432 1.168.14.804.233.99-.383.86-.31.832-.368.36-.414-.315-3.753-3.83-3.917-4.212-1.542-1.375-1.494-1.044-2.007-1.941-5.273-4.26-2.722-1.946-2.56-2.326-2.295-1.292-2.268-.842-1.005-.483-.887-.64-.49-.037-.246.861.793.435.949.367.75.026.791.308 2.326 1.178.381.607-6.614-2.362-2.688-.216-.293-.37 1.341-1.235-.419-.447-.478-.06-1.438.854-.535.057-.093-.562.064-.529-.927-.777-.588.032-.483.54-1.252 1.027.038.403 2.463.438.849.246-.192.274-2.112-.005-2.607.466-4.65 2.85-4.33 1.224-6.225 2.743-2.749.14-1.44.44-4.186-1.05-5.307-2.576-8.033-.81-5.413-3.375-5.372-1.388-3.409-3.24-2.053-.138-1.32-.52-4.88-1.173-4.828-.773-4.703-2.83-3.079-.897-2.661-1.126-5.86-1.922-2.172-1.066-2.055-1.648-3.349-1.706-1.43-1.425-1.596-.51-2.284-2.683-1.193-1.131-1.01-.529-1.081-.182-3.115.215-4.655-1.183-2.15-.302-4.494-1.747-5.96-1.952-1.954-2.24-1.672-2.093-3.008-2.755-1.877-1.174-3.26-1.397-1.806-1.13-2.786-.87-4.727-2.205-1.504-1.886-.88-1.676-2.518-2.033-2.757-3.798-.71-1.4-.535-2.147-.641-1.246-.754-.977.385-.71 1.402-.873 2.332-.196 1.647-.946.218-.777-.107-.484-1.053-1.19-1.311-.316-1.018-.017-.26-.452.767-.494.879-1.16 1.297-1.415.914-1.305.17-1.84-.117-1.84.346-1.556-3.138-1.796-.366-.764-.986-2.057-1.715-2.39.051-4.773-2.061-4.235-2.135-2.107-1.105-.733-2.998-3.267-2.363-1.897-2.314-3.577-2.286-2.272-2.913-3.812-2.104-1.9-9.582-6.422h.54l2.809 1.576.472-.131.068-.77-.324-.918-.52-.22-.75.207-1.01-.19-.504-.302-1.51-.197-1.895-1.07-.812-1.107-.088-1.266-2.714-2.697-1.03-1.504.528.11.722.607.732.173.852.004.62-.243-.223-.447-.583-.372-3.957-1.421-1.304-.998-3.242-1.659-.77-.582-.51-1.604-.795-.074-.698.447-1.911.439-.488-.51-.07-.492 1.348-.52 1.238-1.516-.024-.527-.684.608-1.032.68-1.067.38-1.583.318-.81-.23-.71-.343-1.136-1.324-.573-4.303 1.007-1.492 1.177-1.475 1-.875.576.66.593.08-.418-.746-.982-.699-.346-.696-.037-.638-.466-1.182-2.91-2.487-2.722.191-1.11-.086-1.036-.947-.881-1.596-.435-1.335-.055-.711-.258-.714-4.694-1.168-1.411-1.001-1.416-1.26-.586-1.027-.581-.769-.452-1.327-.32-1.543.523-1.998.682-.965-3.228-.719-1.263-.033-1.017.404-.92-.523-1.906-.578-2.269-2.088-2.666-3.787-2.936-1.22-.946-1.315-1.2-1.187-1.052-1.47-.163-.64-.313-.356-1.466-1.024-1.647-1.733-.426-1.396-.443-2.135-1.098-.752-1.083-.35-.21-1.014.063-.57-.364-1.075-2.231-2.58-1.13-2.12-.621-.66-.58-.966-.295-1.976-.924-2.458-1.788-2.957-1.492-1.987-.744-2.004.33-2.04-.253-1.256-.192-.294.15-.411.495.23.421-.367-.053-1.3-.52-.393-1.445-.407-.638-.28-3.513-.531-2.01-.737-.135-1.715-.943-.785-.838-.485-2.653-1.008-.419.516-.355.952-1.102.208-.964.042-1.617-.663-4.01-2.523-.847-.405-1.25-.214-.617-.41-2.709-1.327.543.706.783.734.699 2.133-.82 1.539-.476 5.375.524 1.07 1.178 1.715.813 2.727.252 2.029.735 1.61-.232 3.787.28 1.153 1.119 1.888 2.072 1.772.434.934L59.487 42l1.653 1.758 3.282 2.397 1.035 1.014 2.961 3.737.096 1.11.547 1.363 1.66-.282.746 1.038-.086.479.202.365.87-.08.752.282 1.577 4.044.846.552 1.084.236 1.209.445.079 1.037-.046.826 1.025 1.196-.174 1.62.828 1.37-.125 1.328.34 1.052 2.556 2.374 3.148 1.889.656 2.48 1.285 2.265 1.314.573 1.328.942-.164.978.091.6 1.775 1.788.288 2.278 1.531 1.49.431.118.338-.233-1.114-1.498-.54-.972-.07-1.534.374-.205 3.178 2.424.335 1.81 1.067 1.022.08 1.383.648.824.196 1.197 1.021 1.966.025 2.735.546 1.994 2.001 3.06 1.622.644.294 1.502 1.686 3.89 1.948 2.108.97 1.788.135 1.116-.73 1.648-.077 1.15 1.06 3.5 1.582 1.794 1.768.433.308.258-.14.481.594.43.669-.55.326-.78-.34-.906-.059-.66.301-.471.576-.072 3.382 2.394.568.92 1.259 1.075 1.153 1.324.498 1.045.922.86.479 2.004 2.352.897 1.25 1.66.083 1.05-.607 2.689-.53.774-1.899 1.143-1.38 1.364-1.333.841-1.415.511-1.166-.115-1.124-1.57-1.333-4.734-.894-.997-.63-1.485-1.041-1.23-3.766-1.865-1.901-1.968-1.841-1.314-1.981-1.902-5.399-3.152-2.238-1.607-1.475-1.589-.95.024-.735.163-.279-.434-.04-.823-.326-.54-3.16-2.394-.655-1.325-.133-1.536.712-3.958.313-2.314-.2-1.192-.33-.162-.3-.648-.072-1.905-.762-2.072-2.866-4.245-2.097-.84-1.864-.609-5.105-3.755-1.388-1.877-.338-1.067-.177-2.17-.704 1.258-.937.93-2.164-.068-2.433 1.05-1.447-.988-.78-1.12-1.189-1.348-1.338-.264-.853-.034-1.6-1.666-1.293-.53-1.853-.204-1.577-.847-.485-.922-.262-1.305-.586-.773-2.476-1.528-2.016-1.686-1.899-1.083-.56-.885-.045-.605 3 .167 3.572.649 1.712-.183 1.068-.624 1.016-.448.162.485-.186.885.98.812 1.346.658.956-.06-.926-.718-.568-1.464.254-.527-.015-.729-1.328.164-.186-.372 1.136-1.11 1.303-2.932.624-2.886-1.367-2.526-2.307-1.754-4.999-5.137-2.985-2.64-.865-.982-.792-.462-2.435-.603-2.04-1.475-3.58-2.087-1.53-1.076-1.055-2.527-.84-.344.264-1.747-.367-3.092-.6-.792-1.938-.77-.462-2.1-.096-2-.377-1.39-3.3-2.344-.187-1.134v-1.075l-.336-1.063-1.761-2.23-2.129-1.945-.74-.927-.09-1.885-.755-.506.287-.128.699.047.397-.249.044-1.311-3.201-2.061-.926-2.835-1.706-1.5-.4-.544-.917-2.673M443.27 174.876l-.73.438-.394-1.552.584-1.514.707-.87 1.398-.102.92-.285.116.384-.757 1.174-1.844 2.327m-275.622-18.422-.41 1.16-1.066-.465-.383-.728-.072-1.193.591-.202.859.504.177.339.304.585m-62.164 40.427-.85.297-1.253-.863.335-.683.712-.465.666.865.39.849m4.89-88.227.401 1.577-.723-.233-.947-.856-.648-1.096.059-.49.127-.09 1.339.643.392.545M73.909 51.61l-.102.246-1.436-.873-3.263-2.971-1.187-1.488-.194-.697.1-1.555 1.117.185 1.297 1.043.565.964.028 1.107 2.419.522.341 2.394.315 1.123m-28.39 13.848-.193.452-2.376-.94 1.304-1.642-.191-1.722.57-.36.514.57.683 2.194-.311 1.448m41.81-13.187-1.061 3.325-1.083-.054-2.237-1.049-.24-.653.863-3.857.652-.506 1.951-.518.305.474.207 1.138.643 1.7m-85.095.893-.601.538-1.615-2.938-.018-.71.473-.351.782.067.003.737.656.621.256.607.064 1.43M446.45 161.687l.25.68-.244-.08-.321-.515-.233-.641.195-.017.171.221.182.352m-70.019 36.096-1.584.326-.282-.305 3.199-1.44.547.062.19.193-1.655.683-.415.481m-255.316-77.12-.305.05-.721-.749-.318-1.835.143-.196 1.36 2.274-.026.28-.133.176M52.232 14.226l-.467.06-.873-.649.066-.597.19-.06.873.524.298.46-.087.262m50.634 80.097.177.509-.094.147-.575-.354-.976 2.106-.284.195.588-2.885.615-.411.682-.083-.133.776m-8.433 22.924-.19.665-4.24-2.635 1.02-.25 1.184.185 2.226 2.035m-5.05-2.143-.282.157-1.206-1.63-.177-1.118-.493-.473-1.216-.373 1.049-2.275.886-4.714.39.864-.939 4.775.048.625.44.584.472.987.056 1.065.829.991.143.535Z"/></svg>