<svg xmlns="http://www.w3.org/2000/svg" width="512" height="250" fill="#ebc000" stroke="#fff" stroke-linecap="round" stroke-linejoin="round" stroke-width=".5" baseprofile="tiny" version="1.2" viewbox="0 0 512 250"><path d="M512 150.851v.694l-1.813.65-.183-.53 1.162-.37.834-.444m-2.666 2.045.353-.235.49.41-.235.743-.882.196-.784-.176-.137-.626.548-.488.647.176m-509.04-2.11-.176.683-.118.076v-.694l.294-.066Z"/>,<path d="m304.219 129.351 5.397 3.054.097.825 2.041 1.421-.656 1.753.084.806.91.518.043.37-.391.859.081.432-.093.68 1.085 2.293.522.311-1.131.825-1.555.552-.854-.023-.506.426-.99.037-.372.18-1.709-.401-1.07.115-.398-1.934-.769-1.057-1.394-.265-.807-.427-1.47-.478-.595-.362-.768-1.792-.825-.796-.284-.825.142-.74-.256-1.308.588-.068 1.42-1.554-.013-.463-.306-.322-.082-.56.41-.18.082-.837-.564-.802.499-.171 4.457-.092Z"/>,<path d="m243.676 88.666-.031 2.525-4.668-.074.046 3.64-1.333.127-.348.73.27 2.054-5.57-.009-.31.475.061-.601 3.228-.112.17-.512.583-.639.47-1.964 1.977-1.535.669-1.793.444-.104.463-1.108 1.197-.153.514.185h.646l.459-.324.879-.046-.033-.762h.217Z"/>,<path d="m81.294 58.311-.19-.003-2.754-1.397-1.016-.615-2.576-.588-.792-1.26.202-.872-1.82-.606-.249-1.146-1.72-1.033-.03-.733.79-.686-.039-.897-2.418-.905-2.343-2.642-2.26-1.224-.756-.736-1.427.461-1.384.795-2.256-1.557-1.386-.394-1.4-.042.017-13.377 2.653.343 2.239.684 1.483.13 1.248-.593 1.723-.444 2.112.174 2.13-.625 2.328-.354.977.59 1.061-.333.318-.67.983.152 2.405 1.275 1.893-.964.192 1.08 1.748-.234.537-.415 1.722.082 2.176.597 3.328.522 1.957.241L92.093 30l1.919.722-2.001.705 2.57.305 3.84-.167 1.211-.25 1.516.854 1.547-.72-1.451-.603.918-.487 2.87-.208 1.147.34 1.43.772 1.588-.113 2.512.641 2.208-.226 2.075.034-.164-.885 1.264-.248 2.204.482-.008 1.346.905-1.134 1.144.038.643-1.43-1.524-.877-1.66-.574.114-1.572 1.682-1.032 1.876.228 1.439.628 1.932 1.603-1.262.7 2.645.287-.006 1.454 1.9-1.114 1.7.915-.423 1.055 1.376.96 1.485-1.028 1.037-1.228.078-1.56 4.123.317 1.91.706.085.706-1.059.758 1.003.762-.18.692-2.785.994-1.979.22-1.47-.429-.424.714-1.371 1.2-.415.622-1.65.962-2.035.094-1.123.601-.094.925-1.655.178-1.74 1.152-1.542 1.602-.552 1.12-.079 1.653 2.09.237 1.306 2.41 1.99-.28 2.643.615 1.422.54 1.018.673 1.782.391 1.506.6 3.896.219-.233 1.232.443 1.43 1.03 1.59 2.116 1.351 1.095-.463.77-1.462-.743-2.246-1.003-.749 2.276-.666 1.612-.997.788-.991-.116-.95-.966-1.209-1.727-1.07 1.678-1.49-.62-1.288-.475-2.221.99-.329 3.9.526 1.178-.374 1.325.482 1.751.824.432.552 2.536.108-.043 1.195.473 1.798 1.3.222 1.03.838 2.06-.79 1.36-1.57.94-.66 4.533 4.79-.571.893 1.891.802 1.279.813 2.268.367.912.454.564 1.203 1.108.19.571.536.104 1.598-2.053 1.034-2.344.505-1.79 1.169-2.404.23-3.042-.299-3.607.088-1.191 1.02-1.813.63-2.052 1.883-1.637 1.313 1.208-.234 2.283-1.868 2.984-1.185 2.128-.142 1.259.697-1.344.956.451 1.533.464 1.073 1.848.71 2.35-.206 1.426-1.599.099 1.032.918.515-1.76.932-3.15.846-1.41.576-1.59 1.024-1.08-.104-.054-1.204 2.47-1.176-2.277.046-1.58.173-.93-.804v-1.939l-.63-.41-.954.241-.473-.373-1.085 1.073-.433 1.107-.505.647-1.06.291-.142.351-4.782.011-.641.262-1.681 1.135-.455.554-2.703.005-.642.226.23.28.1.577-1.86.708-1.465.223-1.652.76h-.357l-.483-.225-.16-.203.345-.646.668-.782.416-.84-.588-2.527-1.482-.668.176-.253-.209-.174h-.39l-.286-.225-.072-.337-.277.147-.381-.043.087-.141-.335-.14-.138-.374-4.98-1.995-1.273.402-.465.014-1.75-.37-1.151.185-1.38-.44-2.445-.315-.442-.24-.253-.781-.481.007-.004.546H81.294m55.248-19.133 1.057-.656 1.954.014-.03.275-1.665.785-1.004-.033-.312-.385m5.999-14.72-1.565-.754.06-.512.684-.095 3.255.154 2.453.78.126.394-3.044-.072-1.557.191-.412-.086m-.767 15.243.549-.427.582.03.361.293-.557.747-.628-.12-.374-.425.067-.098m-18.912-18.34-.774.552-2.065-.106-1.724-.37.757-.641 2.045-.383 1.242.499.519.45m-.323-3.613-3.314-.05-.379-.397 2.864.02.998.265-.17.162m-4.144-1.771 1.7.494-.386.514-2.104.293-1.159-.33-.61-.534-.112-.588 2.67.15m12.238 6.22-6.076-.633-.492-.78-.173-.706-1.428-.62-2.942-.175-1.648-.44.535-.584 2.931.09 1.58.458 2.8-.003 1.227.468-.324.534 1.632.322.903.338 3.994.181 2.26-.308 2.896-.121 2.311.1 1.523.536.318.589-.887.378-2.12.305-1.821-.173-4.08.22-2.92.025m-32.873-5.349 2.006.223-.473.426-2.652.409-2.109-.46 1.152-.453 2.076-.145m.428-.926 1.85.288-1.733.277-2.362-.001.023-.203 1.46-.426.762.065m78.74 39.093-1.701 2.14.928-.48.955.304-.499.496 1.262.39.656-.347 1.418.438-.44 1.041.996-.243.181.755.442.884-.6 1.252-.642.052-.935-.268.308-1.164-.396-.18-1.65 1.233-.849-.05 1.005-.667-1.365-.346-4.288.041-.219-.42.886-.501-.619-.387 1.195-.856 1.47-2.266.881-.81 1.234-.49.66.063-.275.386M136.7 35.4l3.187.93.126.677 1.047-.111 1.015.471-1.262.448-2.213-.342-.8-.64-1.41.757-2.023.736-.489-.832-1.927.136 1.236-.703.182-1.12.485-1.302 1.028.116.264.625.727-.22.827.374m7.27-10.3 1.346-.566 3.156.72 1.958.677.185.62 2.64-.32 1.483.905 3.433.562 1.239.573 1.345 1.331-2.611.663 3.35.928 2.257.313 2.045 1.307 2.237.094-.443.998-2.496 1.652-1.75-.607-2.236-1.369-1.84.179-.18.815 1.496.826 1.93.655.586.377.926 1.408-.49 1.022-1.794-.385-3.567-1.139 3.491 2.085.232.497-3.857-.568-3.052-.826-1.724-.693.497-.401-4.193-1.421.022.412-4.112.227-1.203-.488.937-1.047 2.672-.025 2.928-.182-.475-.508.496-.71 1.84-1.385-.391-.629-.548-.487-2.179-.69-2.88-.484.91-.36-1.506-.884-1.253-.08-1.122-.485-.76.42-2.58.183-5.175-.318-5.315-.632-1.183-.5 1.487-.648-2.02-.006-.45-1.44 1.092-1.272 1.463-.581 3.672-.378-1.047.919 1.12.886 1.315-1.146 3.605-.584 2.44 1.47-.212.932 2.814-.413m-22.376-2.535 2.963.05 2.717.345-2.125 1.267-1.696.276-1.526 1.063-1.622-.053-.887-1.25.022-.706.743-.605 1.41-.387m-40.321-2.819 2.414-1.063 2.92-.922 2.182.02 1.95-.209-.194 1.093-1.096.493-1.329.07-2.643.608-2.277.218-1.927-.308M67.257 51.143l1.365-.114-.426 1.615 1.238 1.144-.567-.003-.857-.65-.526-.655-.717-.443-.263-.625.084-.454.669.185m38.71-35.927 2.791.193 3.846.52 1.088.676.554.593-2.323-.158-2.34-.461-3.167-.053 1.374-.423-1.72-.342-.103-.545M80.34 59.008l-.715.198-2.335-.646-.427-.505-1.273-.498-.256-.405-1.464-.256-.548-.774.123-.33 2.366.527 1.336.15 1.187 1.166 1.42.587.586.786m2.805-36.89 2.031.294 3.633.08 2.908 1.01-1.788.359-3.487 1-1.764.995v.62l-3.743.686-.751-.623-3.284-.752 1.595-1.641 1.234-.935-1.39-.872 4.806-.222m19.51-1.986 1.267-.238 1.49.062.251.696-.865.675-4.817.22-3.588.617-2.163.032-.181-.464 2.954-.629-6.426.17-1.988-.255 1.94-1.389 1.339-.398 4.002.48 2.527.842 2.484.108-2.034-1.36 1.303-.518 1.469.164.48.678.557.507m1.844 3.939 1.593.573.893 1.386.44 1.003 4.956 1.378-.154.625-2.336.115.908.547-.48.521-2.573-.223-2.447-.384-1.653.086-2.67.483-6.135.347-.77-.67-1.941-.389-1.263.16-1.753-1.127 3.142-.394 2.005.064 1.856-.248-2.75-.332-5.056.085-.75-.525 3.298-.569-2.194.02-2.483-.374 1.194-1.066.99-.566 3.808-.866 1.453.275-.71.667 3.165-.43 1.978.717 1.607-.726 1.3.466 1.163 1.398.715-.59-1.01-1.457 1.25-.208 1.414.228m8.653.526-1.566-.93 1.683-.688 1.696.299 2.537-.18.37.412-1.328.682 2.153.613-.256 1.28-2.332.55-1.37-.119-.984-.543-3.535-1.097.029-.455 2.903.176m-8.763-1.272 1.906-.056 1.08.312-1.25.94-2.22-.996.484-.2m11.52-4.437 1.087.66.045.729-.648 1.057-2.345.146-1.529-.227.03-.83-2.332.11-.09-1.1 1.53.045 2.142-.485 2 .082.11-.187m3.532-5.521.986-.434 1.458-.1-.622-.326 3.308-.072 1.816.76 4.726.573 1.123.939 1.715.46-1.953.423-2.628 1.07-2.516.101-2.947-.182-1.528-.58.022-.515 1.124-.38-2.601.012-1.568-.473-.9-.644.985-.632m6.3-1.838 2.115-.271 4.451-.277 2.091-.53 1.764.074 1.536.399 1.08-.768 4.428-.385 4.348-.06.755.154 4.106-.24 9.962.292 3.054.182 2.603.386-.063.38-3.47.617-3.441.288-1.286.318 3.096-.007-3.356.862-2.317.403-2.433 1.162-2.934.236-.906.29-4.306.152 1.96.178-.982.254 1.176.702-1.351.487-2.198.403-.674.557-1.987.425.2.322 2.43-.055.03.347-3.8.853-3.716-.393-4.178.22-4.806-.246-.178-.682 2.63-.322-.701-1.026.867-.1 3.803.614-1.94-.912-2.306-.273 1.152-.55 2.522-.34.403-.495-2.009-.556-.603-.732 3.887.06 1.123.155 2.22-.518-3.203-.165-4.976.091-2.514-.483-1.185-.575-1.661-.417-.312-.485m23.283 20.551-.924.42-1.594.072-.355-.696.604-.797 1.303-.198 1.11.394.016.61-.16.195m-29.925-2.91.867.545-.885.498-1.917-.43-1.158.155-1.942-.64 1.251-.44.995-.617 2.362.66.427.27m45.138 27.9.492-.12 1.87.356 1.455.595.042.26-.693.026-1.843-.446-1.323-.672m.718 4.035.498.692 1.031.19 1.319-.038-.7.582-.526.093-1.804-.604-.356-.476.538-.439Z"/>,<path d="M81.294 58.311h39.369l.004-.546.481-.007.253.78.442.241 2.445.314 1.38.441 1.152-.185 1.749.37.465-.014 1.273-.402 4.98 1.995.138.374.335.14-.087.14.381.044.277-.147.072.337.286.225h.39l.209.174-.176.253 1.482.668.588 2.526-.416.84-.981 1.28-.031.15.16.202.482.225h.357l1.652-.76 1.465-.223 1.86-.708-.1-.578-.23-.279.642-.226 2.703-.005.455-.554 1.68-1.135.642-.262 4.782-.01.142-.352 1.06-.291.505-.647.433-1.107 1.085-1.073.473.373.953-.241.632.41-.001 1.94.93.803.245.467-1.518.689-2.964.912-.994 1.164-.014.754.47.754.59.036-.15-.52.427.316-.114.407-.96.23-.683-.027-1.052.248-1.445.141-1.186.412 2.089-.268.421.27-1.99.426-.907.003.042-.175-.433.395.419.065-.307 1.022-1.035 1.094-.106-.365-.312-.074-.467-.356.296.766.353.253.022.538-1.257 1.688-.13-.056.44-.968-.726-.543-.167-1.182-.274.615.304.902-.94-.223.98.458.06 1.354.408.098.348 1.915-.904 1.056-1.472.421-.934.834-.71.092-.72.522-.204.477-1.561.923-.802.678-.67.843-.22 1.01.252.988.474 1.217.633 1.006.007.615.674 1.65-.107 1.512-.355.868-.425.18-.7-.173-.224-.624-.54-.327-1.416-2.311-.214-.556.292-.944-.398-.783-1.109-1.19-.555-.218-1.435.646-.254-.071-.69-.664-.892-.352-1.608.18-1.262-.158-1.084.098-.588.222.256.378-.023.577.302.28-.271.188-.528-.21-.534.27-1.032-.045-1.062-.751-1.24.177-1.035-.33-.884.1-1.197.333-1.295 1.054-1.413.613-.777.68-.327.64-.014.98.071.684.27.483-.554.043-2.12-.754-.398-.668-.313-.996-.839-.81-1.205-1.808-1.003-.567-1.162.028-.896 1.123-1.18-.426-.736-.43-.825-1.525-1.573-1.075-.518-.504h-2.464l-.003.586-3.956.011-5.392-1.693.133-.278-3.423.264L89.18 81l-.922-.818-.663-.17-.156-.408-.798-.071-.509-.385-1.32-.14-.364-.23-.172-.78-1.38-1.429-1.185-1.977.05-.33-.627-.47-1.1-1.19-.197-1.16-.758-.777.312-1.18-.05-1.219-.453-1.09.555-1.34.346-2.581-.257-1.908-.45-1.217-.414-.66.172-.278 2.057.483.758 1.343.351-.375-.227-1.167-.484-1.166m-46.31 41.131.483.314.362.498-1.044.605-.208.238-.354-.204.041-.397-.235-.518.318-.39-.099-.28.083-.132.653.266m-.844-.973-.12.17-.476.102-.421-.504.14-.121.877.353m-1.085-.587-.044.154-.762-.042.106-.173.7.06m-1.802-.767.53.561-.077.082-.597-.068-.236-.38.38-.195m-1.906-.709.029.332-.169.14-.479-.259.29-.243.329.03M19.246 42.12l1.128.13.136.545-.873.22-1.796-.651 1.405-.244m18.829 3.435.944.096.602.442-1.23.676-1.42.542-.728-.367-.22-.667 2.052-.722m17.412-16.701-.017 13.377 1.4.042 1.386.394 2.256 1.557 1.384-.795 1.427-.46.755.735 2.26 1.224 2.344 2.642 2.418.905.04.897-.791.686-.782-.535-1.254-.453-.402-1.24-1.833-1.151-.767-1.343-3.626-.127-1.667-.409-2.941-1.476-3.85-.777-1.969.12-2.797-.653-1.69-.606-1.579.302.293.987-2.431.388-1.252.48-1.576.302-.204-.838.64-1.395 1.511-.437-.39-.357-1.813.792-.97.947-2.05 1.012 1.041.69-1.344 1.022-2.952 1.03-.353.629-2.22.734-.45.668-1.663.608-.977-.11-3.953 1.357-2.44.406-.223-.239 1.555-.664 1.392-.44 1.516-.777 1.764-.16.701-.584 1.971-.851.318-.285 1.05-.502.245-1.079.724-.84-1.64.431-.459-.244-.77.517-.928-.722-.384.51-.532-.708-1.422.569-.873-.001-.122-.847.257-.521-.916-.507-1.85.273-1.2-.668-.972-.341-.007-.806-1.096-.606.55-.817 1.16-.794.508-.73 1.15-.104.976.227 1.147-.686 1.033.123 1.084-.442-.265-.65-.796-.255 1.053-.549-.873.016-1.51.31-.433.314-1.121-.313-2.012.16L19.306 36l-.597-.572-1.8-.826 2-.595 3.171-.695h1.17l-.194.71 3.002-.055-1.154-.88-1.75-.542-1.011-.711-1.365-.607-1.954-.45.796-.745 2.523-.046 1.795-.648.339-.693 1.453-.676 1.385-.162 2.696-.632 1.308.096 2.188-.759 2.152.3 1.03.641.631-.275 2.404.085-.086.327 2.176.242 1.45-.142 2.997.449 2.735.134 1.096.185 1.892-.231 3.703.626m-43.728 8.433.878.27.887-.145 1.15.375 1.412.19-.117.155-1.078.3-1.624-.567-1.254.083-.338-.125.084-.536Z"/>,<path d="m380.245 58.005-1.082.947-1.182.133-.067 1.426-.791.643-2.822-.468-1.026 2.546-.728.317-2.817.568 1.28 2.47-.976.371.114.81-.877-.208-.713-.51-4.469-.189-.516.157-2.026-.598-.807.295-.221.84-2.34-.49-.936.2-.319.623-.815.263-1.876.991-.622 1.018-.53.01-.39-.675-1.809-.046-.29-1.165-.692-.01.106-1.426-1.703-1.039-2.439.11-1.667.208-1.359-1.282-3.634-1.68-3.66.84.055 5.245-.73.07-.995-1.116-.961-.398-1.614.296-.629.473-.08-.347.35-.593-.271-.495-1.649-.485-.641-1.277-.786-.36-.047-.463 1.383.135.055-1.04 1.21-.23 1.242.212.256-1.388-.253-.88-1.424.07-1.209-.348-1.646.626-1.327.298-.723-.23.145-.732-.907-.95-1.055.04-1.207-.965.82-1.078-.415-.29 1.135-1.563 1.462.825.178-1.039 2.935-1.547 2.222-.036 4.819 1.56 1.509-.6 2.255-.029 1.819.737.413-.422 1.997.061.357-.673-2.305-.978 1.365-.693-.266-.388 1.365-.37-1.027-.974.652-.485 5.322-.495.695-.351 3.559-.525 1.278-.59 2.556.306.448 1.474 1.485-.346 1.826.485-.117.777 1.364-.082 3.564-1.342-.52.446 1.814 1.1 3.178 3.611.758-.745 1.96.82 2.043-.366.785.256.685.822.994.276.606.604 1.832-.19.754.87Z"/>,<path d="m335.6 69.25-.057-5.244 3.661-.84 3.634 1.68 1.359 1.281 1.667-.207 2.44-.111 1.702 1.039-.106 1.426.693.01.29 1.165 1.808.046.39.674.53-.009.622-1.018 1.876-.991.815-.263.422.14-1.193.921 1.05.536 1.012-.355 1.686.75-1.821 1.024-1.082-.14-.587.036-.204-.395.297-.66-1.902.331-.452.913-.676.786-1.188-.067-.368.626 1.043.34.308 1.058-.8 1.44-1.072-.3-.793-.01.04-.87-1.892-.61-1.488-.696-2.554-1.652-.699-1.466-.477-.258-1.538.066-.544-.292-.152-1.135-1.917-.751-1.198.826-1.215.49.234.716-1.605.02Z"/>,<path d="m456.534 131.698 2.467.98 2.63.814 1.771 1.443.217.838 2.37.88.345.754-1.309.153.315.947 1.27.934.923 1.508.814-.047-.057.63 1.098.241-.426.269 1.511.598-.158.411-.941.1-.35-.37-2.659-.373-1.913-1.69-.739-1.244-1.855-.622-1.204.405-.869.47.181 1.049-1.117.489-.796-.238-1.472-.06-.047-9.269m16.554 1.507.54.455.171.74-.445.379-.268-.84-.33-.55-1.454-1.072-1.027-.418.395-.343 1.85 1.052.568.597m-1.904 3.102-1.508.678-.755-.002-1.979-.81.118-.44 1.276.208.778-.111.214-.682.204-.035.138.755.812-.109.401-.486.794-.507-.156-.838.851-.027.288.233-.029.789-.478.868-.744.117-.225.399m4.92-.712.43.322.69.902.671.482-.199.399-.398.142-.616-.546-.623-.904-.306-1.083.197-.138.153.424Z"/>,<path d="m456.534 131.698.047 9.27-1.266-1.168-1.444-.286-.35.406-1.803.043.604-1.157.896-.395-.371-1.547-.683-1.193-2.757-1.205-1.173-.119-2.136-1.314-.42.691-.545.126-.323-.522-.005-.618-1.086-.699 1.532-.512 1.014.028-.12-.377-2.081-.003-.564-.847-1.27-.263-.602-.703 1.917-.345.729-.463 2.283.584.225.528.397 2.3 1.472.852 1.188-1.509 1.632-.858 1.265-.001 2.27 1.004 1.528.272m-22.8 8.95.143.28.027.431-.928 1.062-1.218.313-.17-.17.128-.484.611-.868 1.406-.564m13.144-2.841-.139-1.071.55-.992.324.416-.004.678-.731.969m-23.223-15.692-.809 1.285 1.046 1.346-.246.655 1.595 1.316-1.685.168-.475.97.062 1.288-1.368.973-.037 1.416-.549 2.175-.209-.506-1.616.64-.563-.87-1.014-.08-.71-.455-1.69.511-.52-.688-.93.078-1.173-.164-.218-1.908-.71-.395-.682-1.216-.198-1.245.166-1.318.845-.945.237.95.973.804.917-.289.908.103.829-.72.682-.124 1.345.398 1.16-.303.73-1.978.547-.494.493-1.618h1.635l1.232.24m16.34 9.87 1.565.415.517 1.088-1.2-.587-1.189-.119-.802.094-.984-.05.337-.782 1.756-.059m-3.55 1.407-.983-.262-.277-.611 1.44-.068.353.469-.533.472m1.504-8.485.102.777.84.125.133.58-.074 1.243-.734-.139-.216.866.586.75-.398.171-.574-.9-.423-1.819.286-1.136.472-.518m-7.118 1.848 1.636-.06 1.406-1.032.248.318-1.143 1.41-1.069.274-1.369-.278-2.37.07-1.242.206-.202 1.076 1.273 1.265.768-.644 2.652-.484-.117.655-.62-.207-.617.833-1.252.552 1.346 1.822-.26.489 1.278 1.641-.012.935-.759.418-.558-.5.687-1.165-1.395.55-.354-.393.184-.55-1.025-.833.106-1.386-.949.432.178 3.693-.902.207-.61-.418.407-1.309-.22-1.372-.598-.01-.442-.975.588-.931.202-1.13.715-2.143.298-.587 1.21-1.056 1.11.42 1.793.197m-3.744 15.835-1.887-.996 1.326-.28 1.245.865-.086.384-.598.027m1.489-2.449.947-.108 1.274-.521-.208.79-2.137.404-1.892-.176-.005-.52 1.13-.295.89.426m-4.381-.248.879-.116.352.605-2.629.476-.765-.011.49-.819.779-.011.381-.503.513.38m-13.9-2.76.194.505 2.724.142.314-.586 2.638.684.518.922 2.133.259 1.745.845-1.623.542-1.564-.573-2.763-.067-1.33-.255-1.649-.543-1.043-.14-.592.177-2.594-.586-.246-.611-1.302-.105.976-1.359 1.726.084 1.148.556.59.108m-5.856-7.59.241.992.496.794 1.044.125.692.9-.357 1.77-.057 2.2-1.575.03-1.197-1.19-1.826-1.162-.61-.862-1.076-1.158-.706-1.066-1.082-1.991-1.249-1.185-.942-2.333-1.282-.896-.744-1.217-1.07-.796-1.484-1.568-.125-.724 3.117.333 1.258 1.39 1.884 1.556 1.347 1.53 1.446.022 1.195.974.823 1.19 1.083.65-.57 1.162.815.493.511.037Z"/>,<path d="m158.387 202.86 1.257 1.727 1.85.853 1.99.356-.64.71-1.35.072-.726-.503-2.38-.038v-3.176m15.656-31.887-.735 2.6.013 1.417-.308.317-.208 1.661 1.806 1.218-.194.98.889.62-.073.695-1.366 1.824-2.109.763-2.852.296-1.563-.143.3.848-.292 1.064.263.718-.853.5-1.458.196-1.367-.518-.55.373.199 1.413.96.428.779-.449.424.74-1.31.44-1.142.885-.21 1.43-.335.762-1.344.004-1.115.729-.408 1.066 1.4 1.042 1.359.287-.49 1.276-1.68.802-.924 1.668-1.298.56-.582.667.459 1.477.947.823-1.918-.294-3.437-.19-.59-.83.028-1.065-.947.092-.5-.516-.125-1.508 1.091-.626.451-.902-.165-.72.754-1.213.52-1.884-.153-.834.62-.27-.152-.536-.66-.285.47-.596-.643-.54-.332-1.64.572-.29-.24-1.733.714-2.726.852-.516-.432-1.388-.005-1.307 1.077-.929-.033-1.188.811-1.388.004-1.308-.37-.26-.655-2.455.877-1.463-.135-1.377.509-1.293.93-1.334 1.005-.884-.426-.558.297-.458-.045-2.37 1.549-.702.488-1.477-.173-.356 1.186-1.286 1.86.347.837 1.027.554-1.144 1.622.059 2.845 2.625 1.162.216 1.738 1.05 1.465.556.204.628-1.4 2.162 1.434.387 1.597.217 1.125-.228 1.29-1.09.233-1.255.704-.273.714.821-.03 1.136-2.152 1.363-1.605 1.381-1.898 1.94Z"/>,<path d="m158.387 202.86.001 3.177 2.38.038-.47.576-1.22.441-1.541-.16-1.033-.428-1.49-.205-3.242-1.56-1.959-1.592 1.173.298 1.996.95 1.887.51.734-.651.461-.974 1.311-.587 1.012.168m-1.36-49.858.697.967.19 1.026.746.602-.448 1.376.764 1.596.557 1.96 1.026-.194.173.356-.488 1.477-1.55.702.046 2.37-.297.458.426.558-1.004.884-.931 1.334-.509 1.293.135 1.377-.877 1.463.656 2.455.369.26-.004 1.308-.811 1.388.033 1.188-1.077.929.005 1.307.432 1.388-.852.516-.714 2.726.24 1.733-.572.29.332 1.64.642.54-.468.596.66.285.151.536-.62.27.152.834-.52 1.884-.753 1.214.165.719-.451.902-1.091.626.124 1.508.501.516.947-.092-.027 1.065.59.83 3.436.19 1.318.222-1.265-.01-1.968.863-.23 1.329-.602.033-1.605-.462-1.628-.99-1.769-.815-.445-.9.403-.834-.716-.946-.182-2.424.604-1.368 1.503-1.099-2.16-.415 1.355-1.256.484-2.363 1.58.5.744-2.945-.954-.379-.445 1.776-.897-.2.932-4.67.653-.971-.41-1.388-.117-1.603.6-.046 1.856-4.572.602-2.12-.328-2.13.425-1.173-.17-1.756.831-1.736.256-2.751.902-6.134-.104-2.328-.296-2.003.73-.363.382-.73Z"/>,<path d="m297.728 134.4.256 1.308-.142.74.284.825.825.796.768 1.792-.56-.144-1.91.24-.382.17-.405.908.318.627-.428 3.111 1.378.807.39-.259.12 1.534-1.089-.012-1.108-1.389-1.09-.199-.32-.745-.869.45-1.138-.2-.476-.645-.903-.131-.666.034-.082-.442-1.138-.12-1.851.31.076-1.693-.475-.528-.104-.875.21-.857-.289-.549-.026-.895-1.725.013.123-.513-.725.006-.077.246-.882.056-.57 1.184-.786-.2-.47.2-.94.114-.871-1.203-.759-1.913-4.197-.019-1.498.336-.199-.441.362-.15.044-.62.233-.366.518-.3.373.146.487-.545.774.014.091.403.532.252 2.025-2.041-.048-1.17.618-1.382.651-.733.937-.685.163-.454.035-.521.232-.494-.074-.806.177-1.26.278-.888.426-.76.212-1.85.554-.723.762-.458 1.17.483.906.525 2.101.418.425-.86.196-.109.648.143 1.583-.71.561.301.46-.043.214-.345.529-.122 1.982.182.47-.15.86 1.173.64.173.38-.24.658.094.792-.3.338.607 1.252.945-.086 1.663.57.193-.458.505-.546.377-.544.742-.299.661-.08 1.142-.33.543-.011 1.073-.41.396-.052.846-.195.11-.132.778.358.647.09 1.715Z"/>,<path d="m315.143 130.394-.842-1.173-.017-5.181 1.632-2.062.912-.026 1.267-1.003 1.853-.062 4.02-4.269 1.633-2.06.014-2.786 1.864-.383.673-.487.54-.004-.094 1.968-.3.514-.401 1.537-1.564 3.405-1.22 2.085-2.888 3.532-1.423 1.151-2.127 1.413-1.326 1.081-1.557 1.723-.328.75-.32.337Z"/>,<path d="m311.754 134.651-2.041-1.421-.097-.825-5.397-3.054-.015-1.507 1.107-1.518.518-1.037-.792-2.346-.674-.987 1.839-1.787.738.239v.798l.486.468h.99l1.8 1.208.783-.025.315.164.948.112.42-.593 1.3-.594.573.48h.972l-1.243 1.614.017 5.18.842 1.174-.996.568-.35.593-.534.105-.202 1.002-.456.573-.278.947-.573.47Z"/>,<path d="m290.94 116.296-1.083-.621-.493-.41-.091-.442.23-.592-.004-.58-.82-.89-.144-.952-.523-.42-.015-.826-.298-.548-.5.082.143-.523.369-.592-.161-.59.467-.436-.296-.332.376-.878.65-1.047 1.225.099-.052-6.242 1.636-.005v-2.84h16.876l.459 1.396-.312.258.206 1.464.522 1.698 1.32.875-.72.812-1.047.234-.448.436-.14.945-.612 2.09.15.57-.226 1.22-.578 1.402-.858.704-.61 1.087-.143.581-.673.399-.421 1.488.019 1.279-.017-1.11-.196-.027.024-.709-.17-.488-.733-.561-.171-1.026.17-1.05-.659-.097-.097.317-.855.073.342.415.122.855-.781.781-.708 1.026-.733.146-1.196-.83-.537.293-.147.415-.732.269-.05.293h-1.415l-.196-.293-1.025-.05-.513.245-.39-.122-.977-1.22-1.025.194-.391.66-.366 1.27-.925.423.967.555Z"/>,<path d="m289.902 100.152.07 5.646-1.226-.1-.65 1.048-.375.878.296.332-.467.437.16.589-.368.592-.143.523.5-.082.298.548.015.826.523.42-.017.344-.9.243-.722.575-1.028 1.552-1.339.659-1.373-.088-.401.13.14.5-1.345 1.053-1.79.544-.356-.322-.235-.027-.262.365-1.176.107.223-.385-.65-1.569-.619-.241-.839-.83.309-.672.648.143.401-.101.795.014-.774-1.293.052-.945-.095-.943-.566-.91.142-.67-.912-.034.004-.914-.593-.527.615-1.874 1.814-1.34.075-1.85.548-2.887.309-.612-.592-.487-.023-.453-.532-.37-.35-2.21 1.437-.778 11.344 5.446Z"/>,<path d="m154.01 99.962.124.774-.11.547-.346.24.366.427-.03.386-.944-.242-.67.099-.869-.103-.665.266-.762-.443.125-.459 2.383.312.512-.317-.65-.616.01-.543-.896-.222.32-.393 2.101.287Z"/>,<path d="m154.015 102.336.03-.386-.367-.427.347-.24.109-.547-.125-.774.178-.243 1.11.007.843.366.374-.036.259.505.778-.029-.046.424.633.052.699.521-.528.58-.677-.31-1.12-.008-.257.26-.546.087-.216-.345-.47.204-.57.974-.366-.226-.072-.409Z"/>,<path d="m510.187 26.882 1.813-.593v.972l-1.56.072-.253-.451M325.833 62.01l-.648.843-1.38.235-1.413 1.468 1.293 1.35-.14.958 1.553 1.674-.85.574-.243.362-.63-.098-.977-.863-1.294-.378-.435-.583-1.327-.298-.862.223-.25-.264-1.936-.682-3.296-.473-.173.168-1.813-1.202-1.623-.536-1.228-.836 1.035-.227 1.18-1.19-.796-.563 2.097-.58-.038-.311-1.277.23.045-.633.733-.397 1.377-.104.223-.474-.314-.784.578-.745-.017-.418-2.096-.463-.831.016-.878-.666-1.091.225-1.807-.5.031-.28-.506-.617-1.134-.068-.118-.442.356-.288-.91-.805-1.474.137-.432-.071-.36.323-.53-.057-.35-.91-.334-.473.274-.133 1.147.05.554-.312-.41-.379-.96-.25.086-.257-.578-.26-.892-.93.305-.384-.14-.668-1.39-.339-.746.17-.202-.353-1.497-.357-.458-.84-.12-.69-.686-.327.61-.45-.422-1.327 1.012-.82-.215-.248 1.617-.786-1.49-.676 4.366-2.637.535-.726-2.105-.974.581-.927-1.28-1.058.957-1.22-1.654-1.619 1.313-1.072-2.179-.948.208-.995 1.149-.132 2.42-.57 1.467-.495 2.336.86 3.895.338 5.374 1.609 1.091.676.094.947-1.579.747-2.322.379-6.35-1.081-1.043.18 2.318 1.042.184 2.113 2.942.803.184-.69-.857-.61.906-.54 3.438.886 1.197-.346-.957-1.042 3.315-1.393 1.312.082 1.328.497.829-.977-1.186-.848.696-.85-1.045-.883 3.978.456.812.797-1.8.175.01.792 1.119.487 2.197-.309.348-.907 7.934-1.898 1.073.07-1.402.863 1.764.148 1.019-.486 2.666-.04 2.112-.589 1.62.857 1.616-.942-1.49-.824.74-.47 4.2.431 1.97.445 5.154 1.625.95-.745-1.445-.752-.042-.301-1.714-.14.47-.674-.761-1.11-.043-.455 2.624-1.288.934-1.292 1.057-.28 3.766.375.296.791-1.348 1.154.885.453.457.994-.323 1.949 1.57.872-.611.95-2.786 2.02 1.626.209.565-.512 1.565-.365.378-.704 1.23-.677-.828-.809.663-.939-1.555-.117-.342-.791 1.135-1.428-1.847-1.16 2.545-.958-.329-1.012.71-.032.747.789-.561 1.372 1.522.26-.649-1.026 2.38-.559 2.952-.075 2.628.81-1.265-1.184-.141-1.515 2.473-.287 3.42.063 3.083-.187-1.156-.743 1.646-.934 1.634-.04 2.765-.705 3.755-.19.475-.389 3.734-.132 1.164.32 3.192-.756 2.613.023.392-.614 1.359-.605 3.357-.584 2.44.461-1.937.35 3.221.219.384.702 1.3-.346 4.158.02 3.206.693 1.141.533-.354.74-5.31 1.21-1.069.422 3.867.557 1.28-.269.726.913.625-.37 2.274-.224 4.563.235.347.665 5.946.212.08-1.087 3.02.25 2.27-.008 2.296.749.655.91-.841.595 1.786 1.12 2.237.577 1.372-1.492 2.281.64 2.424-.383 2.753.438 1.048-.399 2.326.2-1.027-1.32 1.878-.617 12.845.924 1.21.844 3.724 1.087 5.743-.27 2.831.235 1.184.588-.173 1.04 1.752.405 1.904-.291 2.522-.038 2.685.28 2.696-.158 2.477 1.264 1.763-.455-1.15-.909.633-.632 4.537.398 2.959-.085 4.09.679 1.991.62v5.666l-1.839.633-1.843-.104 1.283.757.846 1.172.657.383.165.588-.367.377-2.65-.31-3.976 1.07-1.264.166-4.24 1.873-.524.646-2.034-.984-3.706 1.116-.647-.528-1.37.61-1.902-.196-.458.936-1.706 1.376.05.575 1.62.319-.19 2.07-1.32.053-.61 1.19.592.612-2.487.726-.494 1.624-2.12.347-.426 1.445-2.05 1.325-.526-.98-1.403-5.235.684-1.973 1.2-.848.074-.665 2.21-.318 2.54-1.79 2.449-1.463 2.557-1.135 1.143-2.005-1.728.12-.854 1.172-3.608 1.562-1.165-1.75-3.671.484-3.56 2.384 1.175.872-5.374.518.103-1.029-2.21-.216-1.762.699-4.349-.245-4.678.422-10.058 6.13 2.241.18.7.89 1.38.316.911-.71 1.56.092 2.053 1.565.049 1.21-1.112 1.42-.12 1.7-.642 2.273-2.143 2.058-.477.984-4.765 4.138-1.895.835-.897.018-.893-.691-1.91 1.04-.22.474-.2-.25-.009-.722.727-.038.205-1.68-.375-1.218 1.22-.503 1.727.252.956-1.384.488-1.558.552-.52.747-1.28-2.35.42-1.233.56-2.161-.001-.576-1.336-1.685-1.012-2.475-.454-.526-1.393-1.907-2.92-1.25-.524-2.128-.423-1.885.038-1.768.257-1.174.707.78.338.018.785-.791.456-1.284 1.509.013.626-2.005.898-1.707-.537-1.697.119-.744-.477-.853-.153-2.083 1.002-1.873.236-1.307.352-1.791-.232-1.32.015-.862-.727-1.393-.683-1.426-.188-3.143.45-2.02-.598-.272-1.066-2.963-.532-1.593-.588-1.473 1.474.577.837-1.382.99-2.056-.357-1.42-.051-.95-.665-1.484-.02-1.237-.437-2.163.669-2.714 1.225-2.056.363-.754-.87-1.832.19-.606-.603-.994-.276-.685-.822-.785-.256-2.044.366-1.959-.82-.758.745-3.178-3.612-1.814-1.099.52-.446-3.564 1.342-1.364.082.117-.777-1.826-.485-1.485.346-.448-1.474-2.556-.306-1.278.59-3.56.525-.694.351-5.322.495-.652.485 1.027.975-1.365.37.266.387-1.365.693 2.305.978-.357.673-1.997-.06-.413.421-1.82-.737-2.254.029-1.51.6-4.818-1.56-2.222.036-2.935 1.547-.178 1.039-1.462-.825-1.135 1.563.416.29-.821 1.078 1.207.964 1.055-.04.907.951-.145.732.723.23m63.54-49.245 3.076-.321 2.764.716 3.275 1.375-.351 1.279-3.103.177-3.962-.41-2.36-.543-1.092-1.02-1.94-.281 3.693-.972m12.885 2.48 3.605.807-.422.578-8.018.549 2.598-1.867 1.168-.16 1.07.092m51.19 4.473 3.755.062 5.14.754-1.117 1.056-5.243-.039-2.358.336-2.818-.925.764-.978 1.877-.266m13.356 1.124 3.569.373-1.644.562-2.273-.127-2.643-.562.34-.46 2.65.214m-11.888 2.81 1.35-.561 1.778-.132 2.02.544.173.374-2.157.01-3.164-.234M319.782 13.383l2.777-.259 2.16-.017.291.383.817-.34 1.34-.235 2.11.312-.55.217-3.188.295-.199.234-1.662.235-1.54-.337.81-.444-3.166-.044M288.33 50.734l-2.616.022-1.751-.162.324-.626 1.962-.461 1.49.249.629.226-.152.39.114.362M332.1 23.111l3.405-1.248-.385-.645 3.181-.751 4.695-.914 4.734-.266 2.436-.528 2.767-.184.99.561-.956.443-9.383 1.383-4.418 1.354-4.348 2.756.289 1.181 2.72 1.167-.84.125-4.647-.185-.377-.632-2.575-.381-.207-.768 1.454-.305-.049-.776 2.821-1.213-1.307-.174m127.155 28.51.493 1.37-.037 1.4.587 1.435 1.431 2.519-2.105-.47-.875 2.055 1.387 1.458-.04.994-1.078-.858-.933 1.101-.263-1.193.159-1.386-.162-1.535.329-1.075.063-1.902-.834-1.398.126-1.943 1.315-.655-.565-.659.633-.2.37.941M7.212 32.418l-.122.884.959.354-.33-1.033 3.86.212 2.785 1.33-1.41.62-2.331.148-.036 1.39-.569.295-1.332-.042-1.084-.496-1.89-.415-.319-.617-1.444-.232L2.333 35l-.773-.498.309-.528-1.704.338.642.669-.807.603v-5.666l3.484 1.086 3.73 1.414m-5.356-5.244L0 27.261v-.972l1.388-.057 2.057.407-.122.194-1.465.341m301.695 35.444.375-.353 1.469.362.184.28.215.044.011.123.696.343 1.45-.085-.277.507-1.557.246-1.93.823-.791-.29.313-.667-1.554-.417.251-.272 1.362-.473-.217-.171Z"/>,<path d="m143.673 89.899.668-.114.939.043.043.37-1.55.227-.1-.526m1.692-.356 1.124.64-.246 1.011-.261-.182.023-.744-.637-.562-.003-.163m-.57 2.602.428.058.498 1.18.007.825-.348.071-.362-.82-.532-.411.31-.903Z"/>,<path d="m168.96 201.742 1.707-.853 1.209.355.853-.568 1.138.64-.427.497-1.92.427-.64-.498-1.209.64-.711-.64Z"/>,<path d="m277.536 14.685.54-.486 2.089-.05 6.475 1.558-3.579.56-.79 1.046-1.248.269-.677 1.178-1.714.055-3.059-.867 1.29-.505-2.131-.412-2.771-1.2-1.107-1.114 3.878-.51.779.498 2.025-.02m22.697 14.388-2.42.57-1.149.132.603-.998-1.826-.566-2.208.482-.697 1.043-1.356.63-1.527-.345-1.857.07-1.581-.751-.852.376-.883.058-.208.936-2.68-.228-.377.792-1.366-.005-2.361 2.589-2.209 2 .518.486-.495.564-1.41-.024-.924 1.334.087 1.888.91.72-.471 1.673-1.184.975-.627.82-.954-.873-2.808 1.645-1.896.333-1.967-.724-.509-1.53-.45-3.282 1.31-.915 3.756-1.194 2.808-1.467 6.02-4.729 6.291-2.854 3.12-.622 2.34.075 2.167-1.178 2.593.063 2.554-.284 4.448 1.041-1.832.38 1.559.894m-5.253-14.931-2.11.766-4.124.168-4.195-.238-.253-.392-2.04-.024-1.557-.653 4.392-.397 2.065.342 1.438-.426 3.596.355 2.788.499m-3.817 3.133-3.177.581-2.509-.33.981-.367-.859-.454 2.948-.285.564.534 2.052.32Z"/>,<path d="m189.491 10.485 4.775-.85 4.99.064 1.815-.524 5.026-.137 11.36.178 8.896 1.128-2.626.548-13.096.201.716.254 5.035-.157 4.284.49 2.76-.435 1.183.51-1.561.828 3.62-.53 6.906-.55 4.264.275.799.607-5.798 1.012-.803.327-4.546.246 3.294.069-1.664 1.037-1.145.922.045 1.583 1.708.928-2.222.059-2.339.45 2.625.754.334 1.208-1.52.132 1.842 1.223-3.16.102 1.65.579-.467.501-2.005.22-1.982.005 1.782.963.02.633-2.815-.588-.732.38 1.92.356 1.863.87.54 1.145-2.535.274-2.855-1.366.486.966-1.652.747 5.709.138-7.678 2.36-4.162.491-1.568.006-1.472.548-1.978 1.502-3.059.996-.982.059-3.938.681-1.218.88-.02.997-.72.934-2.319 1.138.573 1.111-1.368 2.565-2.004.086-2.1-1.16-2.843-.008-1.38-.78-.948-1.389-2.465-1.769-.72-.926-.195-1.278-1.97-1.312.512-1.048-.95-.502 1.407-1.662 2.14-.529.562-.595.298-1.11-2.399.715-1.278.202-1.745-.464-.095-.966.557-.757 1.319-.02 2.903.378-3.718-1.39-1.416.2-1.187-.353 1.588-1.325-.865-.53-2.84-2.49-1.812-.553.017-.595-3.817-.832-3.019-.104-7.271.162-1.65-.453-2.472-.894 3.734-.448 2.863-.075-6.086-.37-3.206-.58.196-.553 10.594-1.367.55-.518-3.839-.51 1.24-.567 4.924-.993 2.069-.153-.593-.639 3.369-.374 4.373-.223 4.37-.013 1.553.443 3.772-.783 3.395.532 1.997.112 2.953.462-3.381-.766.194-.61Z"/>,<path d="m354.04 197.156.918.448 1.344.177.05.27-.398.648-2.183.092-.036-.757.306-.878Z"/>,<path d="m433.733 140.648.167-.336 1.225-.32.992-.048.444-.177.539.176-.523.385-2.673 1.031-.027-.431-.144-.28Z"/>,<path d="m279.246 168.642.681-.703.562.39.24.608 1.532.372.764-.104 1.27-.727.001-5.253.384.214.843 1.351-.13.867.317.5 1.018-.146 1.385-1.062.348-.682.694-.33.6.173.679.399 1.157.07.91-.331.394-1.124.774-.114.427-.534.474-.948 1.277-1.062 2.012-1.047.579.015.688.241.48-.17.755.142 1.051 3.012-.253 1.585.121.511-.717-.26-.411.1-.135.415-.388.534.013.492.85.77.831-.153.29-.632 1.079.012-.356 1.036-.168 1.181-.368.642-1.248.924-1.806 2.472-2.611 2.321-1.074.647-1.487.552-.725.074-.183.395-.865-.21-.704.27-1.541-.274-.862.174-.589-.075-1.466.562-1.215.225-.878.537-.647.035-.602-.508-.48-.026-.613-.634-.067.197-.19-.383.009-.833-.462-.953.459-.26-.038-1.091-.93-1.331-1.739-3.057m17.968.54-.621-.439-.665.29-.77.557-.759.9 1.067 1.094.509-.141.261-.455.793-.222.678-1.155-.493-.43Z"/>,<path d="m297.214 169.181.493.43-.678 1.155-.793.222-.261.455-.51.141-1.066-1.094.758-.9.77-.557.666-.29.62.438Z"/>,<path d="m89.418 81.728 3.423-.264-.133.278 5.392 1.693 3.956-.01.003-.587h2.464l.518.504 1.573 1.075.825 1.525.735.43 1.18.426.897-1.123 1.162-.028 1.003.567 1.205 1.807.84.811.312.996.399.668 2.119.754.554-.043-.552 1.249-.248 1.023-.104 1.906-.137.694.246.776.441.694.284 1.103.944 1.059.332.811.557.7 1.51.378.588.595 1.247-.398 1.085-.143 1.96-.5.904-.58.34-.83.116-1.195.246-.415.963-.373 1.504-.33 1.26.05.862-.12.341.3-.048.686-.764.845-.339.866.263.248-.57 1.724-.36-.365-.569.043-.51.858-.257-.168-.172.065.01.21-2.642-.014-.001.801-.643.004 1.056.803.157.308.23.086-.036.485-1.825.004-.684 1.16.202.265-.165.333-.035.415-1.61-1.532-.733-.461-1.162-.371-.794.103-1.142.535-.717.14-2.07-.645-1.33-.653-1.066-.199-1.61-.661-1.19-.68-.359-.38-.796-.085-1.454-.45-.593-.649-1.528-.807-.713-.897-.339-.693.475-.139-.146-.405.327-.37.007-.491-.48-.639-.129-.566-.476-.717-1.254-1.414-1.43-1.111-.692-.887-1.22-.58-.262-.348.217-.879-.725-.331-.84-.692-.354-.992-.765-.116-1.492-1.44-.062-.445-.765-1.073-.504-1.089.021-.546-1.028-.564-.475.062-.812-.392-.228.577.236.683.138 1.068 1.778 1.9.216.102.188.489.253-.02.285.917.432.362.303.504.894.724.471 1.323.818 1.289.078.75.686.047 1.086 1.281-.035.255-.598.522-.252-.006-.375-.865-.93-.81-1.754-1.05.047-1.04-.216-.77-1.655-1.076-.188.183-.358-.37-.878-.345-.838-.826.104-.107.585.08.528-.53.053-.642-1.095-1.015-.834-.394-1.71-2.957-.579-1.28Z"/>,<path d="m174.044 170.974.923-.151 1.427 1.1.528-.042 2.58 1.697.822.968-.627.675.394.805-.616.894-1.606.79-1.05-.284-.77.152-1.314-.61-.965.045-.866-.786.11-.92.308-.316-.013-1.417.735-2.6Z"/>,<path d="m180.09 176.026-.393-.805.627-.675-.822-.968-2.58-1.697-.528.042-1.427-1.1-.923.151 1.898-1.939 1.605-1.38 2.153-1.364.029-1.136-.714-.82-.704.272.472-1.662v-.782l-.511-.258-.534.23-.53-.063-.166-.547-.133-1.304-.266-.424-.96-.385-.581.278-1.502-.273.095-1.93-.42-.791.444-.294-.137-.81.39-.624.253-1.12-.336-.884-.777-.4-.153-.561.209-.821-2.727-.06-.547-1.655.415-.024-.018-.613-.277-.415-.063-.823-.826-.421-.895.014-.589-.413-.96-.282-.56-.532-1.593-.234-1.545-1.274.115-.954-.175-.546.151-1.066-1.86.24-.75.535-1.244.576-.317.43-1.79-.09-.802.246-.647-.164.095-2.16-1.167.838-1.255-.037-.538-.758-.944-.083.3-.61-.79-.866-.591-1.28.375-.26-.002-.601.86-.41-.142-.77.363-.495.103-.663 1.627-.968 1.165-.274.191-.214 1.282.067.673-4.516-.223-.815-.63-.519.006-1.033.801-.234.285.147.048-.545-.834-.147-.017-.89 2.77.032.471-.49.395.45.278.84.268-.176.783.753 1.106-.092.275-.436 1.643-.565.166-.603 1.016-.404-.077-.3-1.205-.121-.198-.896.058-.953-.637-.37.267-.13 1.053.182 1.13.355.411-.336 1.023-.22 1.59-.533.52-.543-.188-.4.74-.064.33.328-.184.624.488.216.327.66-.395.502-.226 1.21.364.72.103.658.875.667.698.07.157-.278 1.093-.311.463-.378 1.906.186.128-.29-.239-.283.142-.412.574.126.672-.145 1.436.594.44-.385.318.06.194.4.681-.102.545-.54.437-1.048.841-1.301.485-.067.351.786.798 2.488.76.234.04.982-1.07 1.17.442.43 2.514.223.051 1.425 1.08-.933 1.79.511 2.362.869.694.833-.233.788 1.654-.439 2.768.753 2.124-.056 2.103 1.177 1.816 1.593 1.096.41 1.216.058.515.448.72 2.672-.567 2.35-.724.93-2.004 1.978-.906 1.608-1.053 1.233-.356.028-.397 1.046.1 2.665-.547 3.13-.45.561-.252 1.901-1.442 1.857-.242 1.469-1.15.616-.334.853-1.545-.004-2.237.547-1.002.632-1.593.416-1.673 1.132-1.204 1.41-.207 1.063.236.785-.265 1.437-.323.694-.994.783-1.578 2.503-1.25 1.128-.968.665-.648 1.353-.941.813Z"/>,<path d="m157.113 143.576 1.79.09.317-.431 1.244-.576.75-.534 1.86-.241-.151 1.066.175.546-.115.954 1.545 1.274 1.593.234.56.532.96.282.59.413.894-.014.826.421.063.823.277.415.018.613-.415.024.547 1.656 2.727.059-.209.821.153.561.777.4.336.884-.253 1.12-.39.623.137.81-.445.295-.024-.439-1.325-.727-1.32-.02-2.479.414-.682 1.251-.036.765-.56 1.703-.23-.304-1.622-.06-.554 1.145-.837-1.027-1.86-.347-1.186 1.286-1.026.194-.557-1.96-.764-1.596.448-1.376-.746-.602-.19-1.026-.697-.967.897-1.535-.612-1.196.327-.478-.255-.527.555-.71.098-2.21.306-.482-1.23-2.29Z"/>,<path d="m156.596 134.113-1.282-.067-.19.214-1.166.274-1.627.968-.103.663-.363.495.142.77-.86.41.002.6-.375.26.592 1.281.79.866-.3.61.943.083.538.758 1.255.037 1.167-.838-.095 2.16.647.164.802-.245 1.23 2.289-.306.481-.098 2.21-.555.71.255.528-.327.478.612 1.196-1.278 2.264-.731.363-1.426-.817-.124-.583-2.82-1.428-2.55-1.556-1.097-.876-.59-1.175.234-.41-1.204-1.867-1.402-2.624-1.344-2.831-.582-.649-.447-1.047-1.105-.928-1.014-.576.46-.635-.688-1.356.442-.996 1.134-.899.169.593-.406.338.038.521.588-.113.575.154.596.718.805-.585.269-.96.871-1.237 1.71-.56 1.551-1.49.443-.925-.198-1.08.379-.135.946.674.453.671.659.367.838 1.49 1.059.179.783-.376.514.246.854-.122 1.089.666-.918 1.447.425.034.712.756Z"/>,<path d="m160.887 126.217-.268.176-.278-.84-.395-.45-.47.49-2.771-.032.017.89.834.147-.048.545-.285-.147-.8.234-.008 1.033.631.52.223.814-.673 4.516-.712-.756-.425-.034.918-1.447-1.09-.666-.853.122-.514-.246-.783.376-1.06-.178-.837-1.491-.659-.367-.453-.671-.946-.674-.38.135-1.307-.808-.404.227-1.207-.198-.346-.612-.265.023-1.423-.812-.193-.442.531-.106-.063-.713.334-.515.705-.095 1.143-1.64-.524-.338.268-.826-.32-1.301.304-.373-.224-1.203-.576-.758.182-.691.459.102.268-.423-.33-.837.172-.208.735.045 1.067-.993.586-.151.276-1.673.816-.66.896-.027.113-.296 1.113.119 1.673-1.036.689-.686.504.088.373.374-.276.479-.914.238-.36.711-.551.408-.414.528-.173 1.015-.395.832.734.095.183.654.313.313.113.572-.17.527.05.297.35.118.34.496 1.829-.136.826.18 1 1.225.576-.152 1.024.076.81-.163.504.245-.257.766-.317.477-.111 1.02.286.945.404.423.049.318-.72.708.515.314.378.497.434 1.418Z"/>,<path d="m145.986 115.669-.172.208.33.837-.268.423-.459-.102-.182.691-.474-.41-.305-.768.352-.38-.36-.097-.266-.47-.709-.395-.622.09-.288.495-.575.357-.31.05-.14.296.679.772-.594.392-.661.073-.247-.85-.185.242-.469-.084-.287-.572-.952-.26-.61.002-.044.308-.164-.215.194-.57-.056-.258.213-.168-.296-.212-.008-.572.55-.127.51.51-.028.301.567.064.134-.115.391.349.7-.103.605-.359.864-.287.485-.425.785.084-.053.14.793.048.633.246 1 .82Z"/>,<path d="m138.601 114.395-.55.127.008.572.296.212-.213.168.056.257-.194.571-.772-.315-.288-.299.163-.247-.051-.314-.395-.34-1.049-.462-.093-.416-.373-.255.091.414-.284.34-.325-.395-.457-.14-.194-.287.008-.433.188-.448-.401-.2.54-.458.937.376.327-.185.451.119.236.292.42.095.34-.301.36.772 1.218 1.18Z"/>,<path d="m137.023 112.443-.34.301-.42-.095-.236-.292-.45-.119-.328.185-.937-.376-.214.183-1.157-1.022-.313-.48-1.312-1.089.158-.22.235.214.55-.159.178-.324.208-.013-.03-.7.63-.023.307-.38.42.288.904-.737.024-.293.136.012.182-.34.15-.04.241.217.285.064.315-.181.359-.001.494-.186.197-.193.487.029-.195.454.146.52-.328.484-.153.573-.046.626.112 1.007-.217.14-.133.608.098.376-.291.364.066.384.218.234Z"/>,<path d="m137.746 106.673-.487-.03-.197.194-.494.186-.36.001-.314.18-.285-.063-.242-.218-.149.042-.182.34-.136-.013-.024.293-.905.737-.419-.287-.307.38-.63.023.03.699-.208.013-.179.324-.442.059-.245-.445-.432-.124.099-.57-.194-.153-.292-.102-.624.17-.053-.192-.736-.512-.42-.12.296-.36-.113-.28.1-.273 1.322-.94.148.055.312-.25 1.42.153.658-.037.624-.316.794.17.654-.157.876.229.845.585.517.217.374.392Z"/>,<path d="m128.92 107.486.419.12.736.511.053.192.624-.17.486.256-.257.904-.824-.021-.512-.136-.588-.283-.79-.088-.403-.306.044-.208.754-.516-.075-.168.333-.087Z"/>,<path d="m124.832 107.323.035-.415.165-.333-.202-.266.684-1.16 1.825-.003.037-.485-.23-.086-.158-.308-1.056-.803.643-.004v-.8l2.644.013-.123 2.732h.425l.464.257.122-.212.417.182-1.322.94-.1.273.113.28-.295.36-.333.088.075.168-.754.516-.044.208-.73-.248-.887-.025-.65-.283-.765-.586Z"/>,<path d="m129.219 102.673-.011-.21.172-.065.258.168.51-.858.27-.02.005.21.27.006-.024.387-.23.615.124.22-.224 1.364-.28.377-.256.045-.282.493h-.425l.123-2.732Z"/>,<path d="m169.623 120.604.189.401-.52.543-1.591.533-1.023.22-.41.336-1.131-.355-1.053-.182-.267.13.637.37-.058.953.198.896 1.205.122.077.299-1.016.404-.166.603-1.643.565-.275.436-1.106.092-.783-.753-.434-1.418-.378-.497-.516-.314.72-.708-.048-.318-.404-.423-.286-.945.111-1.02.317-.477.257-.766-.503-.245-.811.163-1.024-.076-.575.152-1.001-1.224-.826-.181-1.83.136-.338-.496-.35-.118-.05-.297.169-.527-.113-.572-.313-.313-.183-.654-.734-.095.395-.832.173-1.015.414-.528.55-.408.361-.711.914-.238-.04.336-.836.166.464.645-.017.744-.627.826.538 1.128.613-.092.32-1.028-.442-.5-.072-1.077 1.772-.578-.197-.67.498-.45.51 1 .998.023.924.793.056.47 1.277.013 1.52-.146.814.637 1.087.176.798-.444.017-.358 3.466-.106-1.208.42.486.671 1.137.107 1.078.7.227 1.14.741-.033.557.335-1.126.836-.125.518.487.528-.353.266-.875.229.028.656-.385.392.962 1.08Z"/>,<path d="m175.588 125.298-.346.051-.786-.12-.463.378-1.093.31-.157.28-.698-.071-.875-.667-.103-.658-.364-.72.226-1.21.395-.501-.327-.661-.488-.216.185-.624-.331-.328-.74.063-.962-1.08.385-.39-.028-.657.875-.229.353-.266-.487-.528.125-.518 1.126-.836.934.523.88.927.04.732.536.034 1.324 1.189-.228 1.28-.863.37.077.336-.262.734.63 1.032.455.002.187.803.868 1.236Z"/>,<path d="m178.454 124.712-.815-.301-.672.145-.574-.126-.142.412.239.282-.128.29-.774-.116-.868-1.236-.187-.803-.455-.002-.63-1.032.262-.734-.077-.336.863-.37.228-1.28 1.704.285.153-.257 1.15-.102 1.529.382-.74 1.223.112.973.558.843-.374 1.262-.362.598Z"/>,<path d="m182.531 122.089-.841 1.301-.437 1.048-.545.54-.68.102-.195-.4-.318-.06-.44.385-.621-.293.362-.598.374-1.262-.558-.843-.113-.973.74-1.223 1.53.493 1.507 1.2.235.583m82.267-64.438.671.373 2.05.262-.72.974-.18 1.013-.39.243-.648-.131.046.361-1.04.8-.022.644.68-.223.488.623-.059.402.419.534-.493.433.366 1.1.771.181-.163.618-1.288.803-2.805-.385-2.072.461-.162.857-1.649.184-1.6-.643-.517.307-2.618-.646-.567-.553.735-.853.271-2.833-1.467-1.493-1.05-.72-2.173-.547-.143-1.037 1.844-.31 2.388.367-.45-1.61 1.342.61 3.311-1.109.427-1.165 1.244-.288.206.5.661.024 1.654 1.241.73-.11 1.562.772.41-.03m3.64 9.721.917-.543.241 1.22-.47 1.098-.645-.29-.33-.956.288-.529Z"/>,<path d="m148.803 128.216.198 1.08-.443.925-1.55 1.49-1.71.56-.872 1.237-.27.96-.804.585-.596-.718-.575-.154-.588.113-.038-.52.406-.34-.17-.592.758-1.062-.308-.622-.543.66-.852-.622.288-.401-.24-1.291.499-.215.261-.886.539-.915-.1-.58.78-.306.977-.566 1.423.812.265-.023.346.612 1.207.198.404-.227 1.308.808Z"/>,<path d="m161.732 101.668.727.125.256.283-.364.358-1.902.042-.083-.609.202-.207 1.164.008Z"/>,<path d="m145.679 101.702.957.128.755.341.236.39-1 .026-.432.238-.796-.228-.813-.518.171-.325.922-.052Z"/>,<path d="m138.996 95.02 2.346.118 1.336.485.566.52 1.329-.16 2.593 1.856.468-.02.849.29-.104.401 1.048.059 1.075.582-.168.333-.946.18-.957.071-.98-.112-2.037.138.954-.793-.58-.37-.917-.095-.491-.41-.337-.81-.804.055-1.326-.381-.427-.299-1.854-.22-.496-.277.533-.356-1.395-.073-1.022.74-.589.02-.204.346-.704.156-.608-.135.75-.44.309-.513.643-.316.726-.277 1.077-.136.344-.156Z"/>,<path d="m300.361 159.647-.756-.143-.48.171-.687-.24-.579-.016-.907-.643-1.1-.218-.418-.902-.003-.502-.61-.153-1.609-1.562-.447-.823-.286-.254-.548-1.137 1.59.156.462.164.48-.033.788-.92 1.237-1.17.509-.112.173-.493.81-.567 1.077-.194.092.53 1.186-.028.66.3.306.352.677.103.739.457.003 1.8-.277.986-.061 1.063.228.421-.16.837-.215.13-.375 1.025-1.499 1.615Z"/>,<path d="m297.86 159.419-2.013 1.047-1.277 1.062-.474.948-.427.534-.774.114-.394 1.124-.91.331-1.157-.07-.68-.399-.599-.172-.694.33-.348.68-1.385 1.063-1.018.145-.318-.5.131-.866-.843-1.351-.384-.214v-4.15l1.402-.05.042-5.066 1.058-.047 2.193-.498.544.586.907-.557.432-.004.802-.32.255.106.548 1.137.286.254.447.823 1.61 1.562.609.153.003.502.419.902 1.1.218.906.643Z"/>,<path d="m284.296 163.225-.001 5.253-1.27.727-.764.104-1.532-.372-.24-.609-.562-.389-.68.703-1.058-1.074-.556-1.039-1.141-4.605-.032-1.701-.182-.776-.554-.586-.734-1.175-1.058-2.6-1.157-1.388-.086-1.09 1.535-.514.922.043.848.643.215-.1 5.765-.061.986.681 3.443.201 3.778-.902.923.081.561.321.01.118-.801.32-.432.004-.907.557-.544-.586-2.193.498-1.058.047-.042 5.066-1.402.05v4.15Z"/>,<path d="m232.23 108.665-.587-1.107-.71-.507.626-.27.689-.998.338-.73.487-.457.707.123.694-.31.794-.015.68.418.943.376 1.8 2.024.065.884.28.815.533.4.121.55-.065.442-.206.08-.775-.112-.107.158-.313.032-1.023-.347-3.314-.074-.382.16-.47-.046-.754.232-.233-1.09 1.294.03 1.124-.54.61.301.618.025.615-.32-.287-.41-.469.24-.441-.007-.562-.35-.45.022-.322.337-1.549.04Z"/>,<path d="m239.625 110.303.065-.443-.121-.55-.533-.4-.28-.814-.066-.884.48-.26.238-.837.451-.033.993.396.802-.281.55.094.213-.316 5.707-.022.316-.996-.246-.175-1.373-12.276 2.177-.025 9.595 6.206.338.666 1.544.638.017.905 1.577-.139.004 3.275-.777.95-.122.877-1.263.225-1.94.122-.526.506-1.824.062-.355-.273-.783.203-1.329.59-.271.444-1.104.638-.193.365-.596.29-.688-.192-.39.347-.208.976-1.13 1.178.034.482-.388.603.094.826-.92.39-.22-.609-.41.16-.245-.027-.262.415-1.098-.012-.394-.213-.185.129-.435-.41.076-.423-.178-.166-.303.14.055-.463.292-.366-.583-.596-.17-.392-.315-.313-.285-.037-1.191.697-.609-.114-.395-.36-.235-.048-.597.191-.082-.52Z"/>,<path d="m231.732 98.134.31-.475 5.57.01-.27-2.055.348-.73 1.333-.128-.046-3.639 4.668.074.004-2.154 5.349 3.444-2.177.025 1.373 12.276.246.175-.316.996-5.707.022-.213.316-.55-.094-.802.28-.993-.395-.45.033-.24.837-.479.26-1.799-2.024-.944-.376-.68-.418-.793.015-.694.31-.707-.123-.487.456-.123-.766.397-.701.176-1.34-.329-2.112.142-.709-.367-.676-.75-.614Z"/>,<path d="m259.828 119.099-1.175.165-.35-.98.064-3.267-.286-.293-.054-.698-.929-.918.181-.749.49-.16.29-.622.694-.133.789-.842.51-.004 1.084.819-.056.472.32.844-.28.572.15.383-1.128 1.316-.268.897-.046 3.198Z"/>,<path d="m277.122 95.484.35 2.21.531.37.023.453.592.487-.31.612-.547 2.886-.075 1.85-1.814 1.341-.615 1.874.593.527-.004.914.912.033-.142.67-.401.082-.046.452-.264.032-.963-1.557-.334-.057-1.112.795-1.1-.415-.766-.083-.41.2-.834-.043-.84.606-.725.035-1.721-.735-.674.349-.726-.025-.533-.537-1.426-.53-1.528.168-.37.308-.2.818-.408.573-.1 1.27-1.084-.819-.51.004-.477.416.032-.974-1.64-.322-.044-.688-.8-.93-.192-.647.113-.69.912-.055.526-.506 1.94-.122 1.263-.225.122-.877.777-.95-.004-3.275 2.006-.634 4.118-2.794 4.873-2.71 2.25.612.8.781 1.006-.528Z"/>,<path d="m259.828 119.099.046-3.198.268-.897 1.128-1.316-.15-.383.28-.572-.32-.844.155-1.742.407-.573.2-.818.37-.308 1.53-.168 1.425.53.533.537.726.025.674-.35 1.721.736.726-.035.839-.606.833.043.41-.2.766.083 1.101.415 1.112-.795.334.057.963 1.557.264-.032.563.567-.23.73-1.198 1.1-.577 1.647-.301.317-.287.995-.761.586-.22.72-.32.573-.133.59-.977.48-.798-.584-.54.023-.847.833-.411.013-1.043 2.378-1.476.512-.54-.075-.547.319-1.137-.031-.762-.89-.468-1.03-1.007-.936-2.324.017Z"/>,<path d="m276.616 109.711.566.91.095.944-.052.945.774 1.293-.795-.014-.4.101-.649-.143-.309.671.84.83.619.242.649 1.57-.938 1.826-.342.258-.11 1.102.142.6-.115.423.673.743.12.51.526.734.65.458.214 1.06-.102.769-2.28-.712-1.972-.133-.842.183-.865-.19-.675.093-2.315-.032.208-1.123-.556-.94-.649-.242-.289-.637-.364-.204.016-.393.366-1.006.677-1.372.411-.013.847-.833.54-.023.798.584.977-.48.133-.59.32-.573.22-.72.76-.586.288-.995.301-.317.577-1.647 1.198-1.1.23-.73-.563-.567.046-.452.401-.082Z"/>,<path d="m257.28 112.36-.182.748.929.918.054.698.286.293-.064 3.266.35.981-1.145.304-.697-1.402-.113-.707.315-1.281-.357-.519-.133-2.153-.594-.734.105-.443 1.245.03Z"/>,<path d="m256.034 112.329-.105.443.594.734.133 2.153.357.519-.315 1.28.113.708.697 1.402-2.23.832-.79.488-1.282.413-1.268-.404.065-.561-.617-1.226.37-1.606.6-1.194-.571-3.094.033-.807 2.47-.067.629.103.46-.23.657.114Z"/>,<path d="m244.58 113.484.185-.13.394.214 1.098.012.262-.415.245.028.41-.16.22.608.92-.39.64.31.248.47.64.3.497-.357.666-.054.974.366.377 2.024-.6 1.194-.37 1.606.617 1.226-.065.56-.647.015-.992-.278-.912.017-1.685.248-2.396.932-.274-.037.109-1.172.136-.178-.043-.56-.603-.596-.452-.095-.414-.39.309-.632-.142-.688.065-.413.226-.002.084-.62-.11-.275.136-.198.528-.17-.351-1.14-.328-.587.114-.483.284-.11Z"/>,<path d="m236.515 110.1.686.014 1.023.347.313-.032.107-.158.775.113.206-.08.082.52.597-.191.235.047.395.361.609.114 1.191-.697.285.037.316.313.17.392.582.596-.292.366-.055.463.303-.14.178.166-.076.423.435.41-.284.11-.114.483.328.588.351 1.138-.528.171-.136.198.11.275-.084.62-.628-.035-.29.573-.402-.007-.277-.303.094-.571-.594-.871-1.067.273.016-.521-.228-.373.046-.413-.705-1.106-1.137-.002-.331.268-.392.032-.407.702-.76.625-1.177-1.398-.72-.467-.161-.629-.208-.313-.414-.233.633-.693.431.026.371-.238.314-.003.224-.188-.12-.472.155-.148.026-.482Z"/>,<path d="m232.281 110.386.753-.232.471.046.382-.16 2.628.06-.026.482-.156.148.121.472-.224.188-.314.003-.37.238-.432-.026-.633.693-.759-.594-.599-.095-.326-.4.008-.217-.434-.302-.09-.304Z"/>,<path d="m243.997 117.069-.065.413.142.688-.31.632.415.39.452.095.603.596.043.56-.136.178-.11 1.172-.372.012-1.466-.678-1.292-1.082-1.212-.778-.957-.918.34-.455.075-.414 1.304-1.435.675-.192.594.87-.094.572.277.303.402.007.29-.573.402.037Z"/>,<path d="m237.16 115.338.76-.625.408-.702.392-.032.331-.268 1.137.002.705 1.106-.046.413.228.373-.016.521.392-.081-1.304 1.435-.076.414-.34.455-.383-.106-1.024-.573-.74-.761-.25-.52-.174-1.051Z"/>,<path d="m248.314 113.25-.094-.825.388-.603-.033-.482 1.129-1.178.208-.976.39-.347.688.192.596-.29.193-.365 1.104-.638.271-.444 1.33-.59.782-.203.355.273.912-.006-.113.69.191.647.801.929.045.688 1.64.322-.033.974-.31.426-.696.133-.29.621-.489.161-1.903-.143-.46.23-.627-.104-2.47.067-.034.807.194 1.07-.974-.366-.666.054-.498.357-.64-.3-.248-.47-.64-.31Z"/>,<path d="m294.932 120.556-.47.151-1.981-.182-.529.122-.213.345-.46.043-.562-.3-1.583.709-.648-.143-.196.11-.425.859-2.101-.418-.906-.525-1.17-.483-.762.458-.554.722-.128.992-.914-.08-.963-.238-.848.753-.745 1.324-.214-1.06-.65-.459-.525-.734-.121-.51-.673-.743.115-.424-.142-.599.11-1.102.342-.258.715-1.442 1.176-.107.262-.365.235.027.356.322 1.79-.544 1.346-1.052-.141-.5.4-.131 1.374.088 1.339-.659 1.028-1.552.722-.575.9-.243.161.609.82.889.005.58-.231.592.09.442 2.356 1.606.013.462.957.74.592.616.36.853 1.063.563.228.451Z"/>,<path d="m282.244 123.016-.084.859-.426.76-.278.888-.177 1.26.074.806-.232.494-.035.521-.163.454-.937.685-.651.733-.618 1.382.048 1.17-2.025 2.04-.532-.251-.09-.403-.775-.014-.487.545-.373-.145-.533-.488-.43.24-.574.613-1.168-1.506 1.083-.785-.537-.94.488-.358.96-.174.113-.63.76.682 1.255.06.437-.672.18-.946-.156-1.11-.673-.841.616-1.647-.355-.283-1.058.116-.398-.735.104-.62 1.795.055 2.28.712.102-.768.745-1.324.848-.753.963.239.914.079Z"/>,<path d="m272.038 124.784.675-.093.865.19.842-.183.177.078-.104.62.398.735 1.058-.116.355.283-.616 1.647.673.841.155 1.11-.18.946-.436.672-1.255-.06-.76-.683-.113.63-.96.175-.488.357.537.94-1.083.786-1.462-1.436-.94-1.173-.863-1.47.045-.472.31-.455.633-2.09 2.549-.067-.012-1.712Z"/>,<path d="m269.723 124.752 2.315.032.012 1.712-2.549.067-.266-.214.488-1.597Z"/>,<path d="m299.72 139.861.593.362 1.471.478.807.427.671.634.362 1.208-.242.385-.286 1.153.273 1.178-.447.496-.432 1.32.748.37-4.316 1.171.135 1.013-1.078.194-.81.567-.172.493-.51.112-1.236 1.17-.788.92-.48.033-.462-.164-1.59-.156-.827-.545-.923-.081-1.164.323-.928-.889-.96-1.163.066-4.526 2.961.018-.12-.49.211-.533-.25-.667.162-.69-.15-.442.49.036.082.442.666-.034.903.131.476.646 1.138.198.87-.449.319.745 1.09.2 1.108 1.388 1.088.012-.118-1.534-.39.259-1.38-.807.43-3.111-.319-.627.405-.908.382-.17 1.91-.24.56.144Z"/>,<path d="m302.591 141.128 1.394.265.769 1.057.398 1.934-.398 1.08.398 1.85.494-.021.513.459.596 1.028.12 1.829-.615.3-.434.986-.928-.878-.105-1.003.299-.661-.083-.57-.561-.36-.392.13-.818-.682-.748-.368.432-1.321.447-.496-.273-1.178.286-1.153.242-.385-.362-1.208-.67-.634Z"/>,<path d="m305.152 144.384 1.07-.115 1.71.4.37-.179.99-.037.507-.426.854.023 1.555-.552 1.131-.825.23.638-.058 1.417.175 1.248.056 2.222.25.697-.976 2.004-.906.882-2.903 1.23-1.607 1.527-.547.26-.993 1.01-.586.33-.12 1.013.674 1.077.28.835.019.425.25-.071-.04 1.395-.23.66.335.244-.212.592-.594.506-2.884 1.25-.624.526.122.6.364.095-.122.748-1.079-.012-.454-1.777.253-1.585-1.05-3.012 1.498-1.615.375-1.025.214-.13.161-.837-.228-.421.06-1.063.278-.986-.003-1.8-.74-.457-.676-.103-.307-.352-.659-.3-1.186.028-.227-1.543 4.316-1.172.818.683.392-.131.561.36.083.57-.3.661.106 1.003.928.878.434-.987.616-.3-.121-1.828-.596-1.028-.513-.459-.494.02-.398-1.848.398-1.081Z"/>,<path d="m301.613 166.021-.29.632-.832.154-.849-.771-.013-.492.388-.534.135-.414.41-.102.718.261.333 1.266Z"/>,<path d="m274.483 134.8-.518.299-.233.365-.044.62-.362.15-.38-1.069.574-.614.43-.24.533.489m-.958 1.876 1.498-.336 4.197.02.759 1.912.871 1.203.94-.115.47-.2.786.201.57-1.184.882-.056.077-.246.725-.006-.123.513 1.725-.013.026.895.289.549-.21.857.104.875.475.528-.076 1.692 1.85-.308.648.083.15.442-.161.69.25.667-.212.532.121.491-2.961-.018-.066 4.526.96 1.163.928.889-2.614.58-3.443-.202-.986-.681-5.765.061-.215.1-.848-.643-.922-.043-1.535.513-.134-.894.197-1.25.49-1.303.074-.61.462-1.282.339-.583 1.273-1.563.15-1.054-.075-.806-.425-.508-.728-1.717.076-.295.437-.564-.723-2.326-.712-.9.135-.276Z"/>,<path d="m299.335 131.433.082.56.306.322.014.463-1.42 1.554-.589.068-.09-1.715-.358-.647.864.112.435-.81.756.093Z"/>,<path d="m306.802 81.48-.248.449-.515-.197-.297.947.357.16-.363.195-.061.374.668-.192.033.553-.708 2.274-.935-2.444.414-.468-.097-.081.376-.665.288-1.073.204-.36.515-.012.131-.25.382-.018.021.582-.165.226Z"/>,<path d="m306.946 80.672-.382.019-.131.249-.476-.003.507-1.158.734-1.052.64.073.232.557-.775.536-.35.78Z"/>,<path d="m326.462 145.735.377.605.352.94.23 1.71.368.665-.142.683-.251.418-.483-.834-.268.421.272 1.054-.127.603-.392.329-.09 1.204-2.14 6.313-.545 1.977-.642 1.65-1.157.336-1.242.602-1.948-.872-.392-.75-.094-1.261-.5-1.134-.13-1.023.254-1.026.655-.246.003-.473.68-1.079.128-.905-.6-1.57-.113-1.311.497-.796.19-.902.71-.052 1.32-.55.624-.018.81-.81 1.171-.877.427-.715-.194-.608.605.171.784-.988.026-.855.47-.637.497.61Z"/>,<path d="m306.343 83.216-.668.192.06-.374.364-.196-.357-.16.297-.946.515.197v.87l-.21.417Z"/>,<path d="m232.23 108.665 1.548-.04.322-.338.45-.022.562.35.441.006.47-.24.286.412-.615.32-.618-.026-.61-.3-1.124.539-1.294-.03.181-.631Z"/>,<path d="m269.486 84.896-.607-2.553-.877-.574-.012-.344-1.163-.848-.126-1.071.877-.793.335-1.173-.225-1.356.288-.73 1.55-.574.995.17-.042.72 1.207-.523.1.273-.71.697-.01.658.492.353-.187 1.231-.936.715.27.775.736.024.358.676.54.223-.08 1.092-.693.409-.438.455-.977.548.152.59-.123.6-.694.33Z"/>,<path d="m243.649 89.037.014-2.056 2.297-1.05 1.42-.216 1.165-.382.544-.712 1.662-.563.061-1.053.823-.124.644-.526 1.86-.24.262-.553-.375-.302-.491-1.501-.085-.865-.536-.911 1.367-.777 1.538-.248.898-.586 1.37-.433 4.762-.37.717.212 1.34-.56 1.52-.012.578.331.972-.086-.288.73.225 1.356-.335 1.173-.877.793.126 1.071 1.163.848.012.344.877.574.607 2.553.46 1.256.077.66-.25 1.16.102.65-.18.778.124.894-.565.594.841 1.037.054.61.505.792.665-.26 1.123.66.624.891-4.873 2.71-4.118 2.795-2.006.634-1.577.14-.017-.906-1.544-.638-.338-.666-14.944-9.65Z"/>,<path d="m306.554 81.929.248-.449 1.584.564 2.785-1.516.574 1.732-.271.214-2.849.714 1.418 1.422-.47.242-.235.476-1.085.197-.34.512-.615.438-1.583-.227-.047-.205.708-2.274-.033-.553.21-.418v-.87Z"/>,<path d="m329.358 93.518.253-.07.052.39 1.113-.224 2.035.08 2.934-2.75.27.484.194 1.123-.726.006-.117.926.252.198-.644.28-.004.581-.414.589-.037.573-.287.3-4.275-.717-.6-1.77Z"/>,<path d="m328.263 92.793-.094-1.035.383-.746.389-.153.43.446.025.833-.309.836-.394.101-.43-.282Z"/>,<path d="m324.23 85.368.297.627-.127.325.458 1.073-1.005.037-.355-.678-1.267-.137 1.044-1.366.955.119Z"/>,<path d="m311.745 82.26-.574-1.732 3.149-1.48.537-1.72-.134-1.038.779-.352.729-.887.61-.221 1.655.183.5.363.68-.24.922 1.696.933.427.107.83-.716.491-.33 1.11.986 1.352 1.742.78.732 1.08-.233 1.03h.454l.014.758.787.747-1.8-.188-1.043 1.366-2.644-.114-4.01-2.86-2.12-.996-1.712-.385Z"/>,<path d="m334.519 95.704.037-.573.414-.589.004-.58.644-.281-.252-.198.117-.926.726-.006.637.972.794.516 1.886.445 1.025 1.288.51.18-.003.317-.745 1.247-.6.455-.53.974-.645-.074-.296.339-.228.721.174.95-.134.175-.654-.004-.888.531-.14.693-.324.3-.885-.011-.557.358.007.574-.688.395-.785-.134-.95.48-.658.08-1.576-3.34 4.266-1.422.948-2.845-.651-1.007m1.497-4.276-.27-.485.413-.484.176.124-.134.587-.185.258Z"/>,<path d="m493.82 150.602.893.817-.47.187-.476-.623.052-.381m-.602-.317-.204-.393-.03-1.09.681.437.231 1.147-.382-.179-.296.078Z"/>,<path d="m401.899 110.668-.337-1.718.91-1.182 1.84-.272 1.332.204 1.174.558.644-.98 1.26.523.33.948-.175 1.705-2.39 1.094.624.862-1.493.103-1.231.573-1.19-.208-.58-.741-.718-1.469Z"/>,<path d="m405.644 107.7-1.333-.204-1.839.272-.91 1.182.337 1.718-1.277-.653-1.217.026.209-1.117-1.253.008-.112 1.565-1.23 3.333.097 1.03.927.044.577 1.298.255 1.231.794.815.862.165.736.738-.464.585-.94.17-.111-.73-1.16-.624-.248.254-.562-.546-.243-.704-1.445-1.478-.233.836-.27-.79.574-2.25.69-1.462.78-1.326-.556-1.297.023-.66-.163-.795-.949-1.13-.34-.713.492-.263.52-1.236-.582-.94-.903-1.038-.687-1.248.6-.258.649-1.537 1.004-.064.83-.617.814-.329.616.44.082.854.96.065-.35 1.498.034 1.275 1.5-.848.425.25.833-.04.287-.495 1.075.097 1.082 1.155.088 1.404 1.152 1.24-.063 1.203-.464.641Z"/>,<path d="m408.722 107.801-1.26-.524-.644.981-1.174-.558.464-.64.063-1.204-1.152-1.24-.088-1.404-1.082-1.155-1.075-.097-.287.494-.833.042-.426-.251-1.499.848-.033-1.275.35-1.498-.961-.065-.082-.855-.616-.439.303-.523 1.21-.926.128.335.759.038-.215-1.626.737-.209.831 1.123.639 1.292 1.75.011.552 1.24-.91.373-.407.512 1.704.85 2.078 2.934 1.077.99.358 1.004-.259 1.422Z"/>,<path d="m398.387 98.961-.814.33-.83.616-1.004.064-.649 1.537-.6.258.687 1.248.903 1.039.583.939-.521 1.236-.491.263.34.713.948 1.13.163.794-.023.66.556 1.298-.78 1.326-.69 1.461-.137-1.056.437-1.09-.478-.84.116-1.55-.578-.737-.463-1.702-.257-1.797-.615-1.177-2.554 1.727-.797-.127-.882-.334.49-1.762-.296-1.332-1.115-1.64.174-.512-.832-.182-1.01-1.16-.092-1.145.496.215.03-1.02.7-.337-.15-.604.322-.484.055-1.472 1.112.324.634-1.173.072-.693.785-1.193-.043-.814 1.84-.982 1.017.257-.117-.875.5-.261-.108-.54.832-.105.475.837.62.34-.015 2.26-1.347 1.188-.17 1.688 1.5-.236.34 1.309.9.275-.413 1.182 1.672.796 1.043-.415.042.588-1.21.926-.303.523Z"/>,<path d="m404.387 113.086 1.23-.573 1.494-.103-.625-.862 2.39-1.094.176-1.705-.33-.948.259-1.422-.358-1.004-1.077-.99-2.078-2.934-1.704-.85.408-.512.909-.372-.551-1.24-1.751-.012-.639-1.292-.83-1.123.762-.347 1.134.007 1.383-.164 1.213-.758.685.534 1.3.26-.225.819.678.578 1.431.369-1.898 1.216-1.186 1.344-.312.987 2.418 3.358 1.29.878.864 1.142.652 2.632-.192 2.502-1.186.937-1.629.915-1.16 1.186-1.774 1.324-.516-.912.4-.963-1.055-.808Z"/>,<path d="M441.998 67.954h0m-.199-.25.2.25-.541-.086-1.042.966.054 1.022-.736.314-.789.671-.947.234-.617.382-.045.616-.166.157.566.23.806.625-.205.344-1.61.162-.555.642-.634-.05-.09.129-.69-.271-.172.267-.417.118-.05-.267-.75-.358.389-.625.335-.167-.126-.26.36-.767-.093-.233-.83-.155-.67-.381 1.157-.912 1.568-.765.977-1.008.675.445 1.23.052-.222-.75 2.196-.613.566-.797.918.84Z"/>,<path d="m435.449 74.312.089-.13.634.051.554-.642 1.611-.162.205-.344 1.227 1.678.353.922.01 1.638-.535.782-1.288.273-1.137.59-1.281.122-.16-.775.264-1.066-.628-1.48 1.056-.24-.974-1.217Z"/>,<path d="m380.802 57.888 1.5-.246 2.713-1.225 2.163-.669 1.237.436 1.484.021.95.665 1.42.05 2.056.359 1.382-.99-.577-.838 1.473-1.474 1.593.588 2.963.532.272 1.066 2.02.598 3.143-.45 1.426.188 1.393.683.863.727 1.319-.015 1.791.232 1.307-.352 1.873-.236 2.083-1.002.853.153.744.477 1.697-.119-1.697 2.494.366.581.805-.18 1.403.221 1.093-.525 1.142.455 1.289.994-.156.506-1.122-.16-2.066.188-1.001.405-1.042.94-2.169.55-1.417.756-2.262-.417-.747.917.454.546.23.47-.995.478-1.02.762-1.662.5-2.132.054-2.298.494-1.655.763-.63-.442-1.721.001-2.104-.864-1.404-.211-1.891.197-2.936-.318-1.568.033-.835-.845-.647-1.311-.88-.158-1.718-.886-3.605-.442-.512-.617.548-1.661-.982-1.146-2.028-.534-1.196-.754-.373-.993Z"/>,<path d="m394.42 87.806.108.539-.499.26.117.876-1.016-.257-1.841.982.043.814-.785 1.193-.072.693-.634 1.173-1.112-.324-.055 1.472-.322.484.15.604-.7.337-.75-2.256-.393.005-.232.909-.779-.737.44-.81.636-.082.655-1.203-.82-.243-1.319.02-1.353-.194-.125-.99-.68-.07-1.126-.614-.502.965 1.026.753-.889.53-.315.518.875.381-.242.857.493 1.07.221 1.17-.203.52-.968-.018-1.753.296.082 1.07-.76.84-2.046.958-1.592 1.673-1.07.898-1.417.93-.002.655-1.99.86-.664.075-.427 1.085.372 3.03-.603 1.35-.006 2.417-.736.069-.648 1.084.433.469-1.296.403-.48.967-.57.41-1.347-1.329-1.204-3.426-.498-.673-.756-1.366-.598-2.667-1.294-1.953-1.014-4.576.005-1.723-.276-1.332-2.07.851-1.002-.17-1.858-1.724.684-.514-.42-.558-1.669-1.207.947-.95 3.13.005-.282-1.221-.8-.722-.161-1.094-.931-.639 1.567-1.49 1.652.107 1.488-1.49.891-1.444 1.38-1.427-.021-1.014 1.213-.823-1.148-.702-.998-2.208.697-.614 2.157.347 1.586-.211 1.373-1.195 1.529 1.667-.144 1.16.566.728-.047.726-1.02-.191.398 1.567 1.397.9 1.977.995-.902.646-.552 1.33 4.573 2.034 1.95.184.82.723 2.81.467 1.184-.023.163-.563-.187-.904.11-.613.867-.299.15 1.405 1.293.54.894-.222 2.361.053.1-.874-.579-.454 1.147-.178 1.295-1.057 1.639-.906 1.193.35 1.014-.6.667.885-.48.597 1.533.213Z"/>,<path d="m387.801 96.652-.029 1.02-.496-.215.093 1.144-.407-.741-.082-.724-.27-.685-.595-.828-1.31-.057.13.586-.447.792-.605-.289-.207.26-.953-.283-.221-1.171-.493-1.07.242-.857-.875-.38.315-.52.89-.529-1.027-.753.502-.965 1.127.615.679.07.125.989 1.353.195 1.32-.021.82.243-.656 1.203-.637.082-.439.81.779.737.232-.91.393-.004.75 2.256Z"/>,<path d="m386.413 88.502.579.454-.1.874-2.361-.053-.894.222-1.293-.54-.03-.285.94-1.057.769-.36 1.016.328.751.035.623.382Z"/>,<path d="m381.327 88.353-.11.613.187.904-.163.563-1.184.023-2.81-.467-.82-.723-1.95-.184-4.573-2.034.552-1.33 1.492-.986 1.14.437 1.436.927.799.204.477.683 1.105.28 1.155.625 1.609.326 1.658.14Z"/>,<path d="m366.702 77.52-1.373 1.195-1.586.211-2.157-.347-.697.614.998 2.208 1.148.702-1.213.823.022 1.014-1.38 1.427-.892 1.443-1.488 1.491-1.652-.108-1.567 1.491.93.639.163 1.094.799.722.282 1.22-3.13-.003-.947.949-1.042-.36-.424-1.022-1.1-1.083-2.62.267-2.31.027-2.003.2.536-1.653 2.051-.735-.117-.655-.68-.23-.04-1.252-1.36-.626-.572-.859-.704-.748 2.383.726 1.423-.213.85.182.288-.312.99.125 1.848-.591.05-1.21.793-.806 1.059.003.155-.398 1.087-.185.526.132.556-.4-.078-.854.604-.858.905-.36-.56-.941 1.354.044.39-.512-.059-.546.709-.598-.163-.707-.336-.603.83-.62 1.527-.298 1.633-.165 1.55-.422 1.051.663.421 1.092 2.34.576Z"/>,<path d="m350.604 74.862.793.01 1.507.473 1.03-.457.478.275.46-.651.85.03.218-.21.15-.573.613-.495.77.323-.155.435.43.068-.132 1.194.563.466.496-.299.63-.14.887-.638 2.446.107.253.409-1.55.422-1.633.165-1.527.299-.83.62.336.602.163.707-.709.598.06.546-.391.512-1.353-.044.559.94-.905.36-.604.859.078.854-.556.4-.526-.132-1.087.185-.155.398-1.059-.003-.793.805-.05 1.21-1.848.592-.99-.125-.288.312-.85-.182-1.423.213-2.383-.726 1.29-1.29-.117-.915-1.077-.24-.111-.902-.466-1.136.608-.778-.62-.21.971-2.807 1.45.54 1.073-.19.297-.645 1.123-.214.801-.433.284-1.137 1.2-.275.222-.507.67.38.43.045Z"/>,<path d="m352.47 75.172.799-1.44-.308-1.059-1.043-.339.368-.626 1.188.067.676-.786.452-.913 1.902-.33-.297.659.204.395.587-.036-.52.438-1.549-.238-.134.82 1.542-.11 1.757.462 2.689-.216.36 1.316.468-.143.863.324-.05.553.214.81-2.446-.107-.886.637-.631.141-.496.3-.563-.467.133-1.194-.43-.068.154-.435-.77-.323-.612.495-.15.573-.22.21-.85-.03-.459.65-.479-.274-1.03.457-.434-.173Z"/>,<path d="m356.924 67.888.319-.623.936-.2 2.34.49.221-.84.807-.295 2.026.598.516-.157 4.469.188.713.511.877.209-.2.321-2.241.77-.507.565-1.825.17-.537.907-1.506-.19-.983.278-1.357.672.196.333-.405.325-2.69.216-1.756-.462-1.542.11.134-.82 1.548.238.521-.438 1.082.14 1.821-1.025-1.686-.749-1.013.355-1.05-.536 1.194-.92-.422-.14Z"/>,<path d="m330.67 68.575.629-.473 1.614-.296.961.398.996 1.115 2.334-.089-.234-.716 1.215-.49 1.198-.826 1.917.751.152 1.135.544.292 1.538-.066.477.258.7 1.466 2.553 1.652 1.488.697 1.891.609-.039.87-.428-.044-.671-.38-.223.506-1.199.275-.284 1.137-.801.433-1.123.214-.297.645-1.072.19-1.45-.54-.125-1.197-1.06-.051-1.626-1.26-1.136-.155-1.572-.721-1.012-.131-.624.265-.951-.041-1.012.813-1.25.275-.264-1.006.207-1.488-1.11-.48.366-.975-.944-.083.314-1.198 1.341.349 1.25-.455-1.036-.854-.408-.814-1.145.363-.145 1.042-.444-.921Z"/>,<path d="m325.074 85.437-.787-.747-.014-.758h-.454l.233-1.03-.732-1.08-1.742-.78-.985-1.352.33-1.11.715-.49-.107-.831-.933-.427-.921-1.697-.778-1.139.278-.44-.444-1.632.974-.405.226.537.718.656.975.19.515-.042 1.678-1.05.533-.105.42.418-.49.703.887.745.354-.07.45 1.048 1.348.296.988.714 2.022.245 2.221-.376.136-.333 1.25-.275 1.012-.813.951.04.624-.264 1.012.131 1.572.72 1.136.156 1.625 1.26 1.06.05.125 1.198-.97 2.807.619.21-.608.778.466 1.136.111.903 1.077.24.117.915-1.29 1.29.704.747.572.86 1.36.625.04 1.252.68.23.117.655-2.051.735-.536 1.652-4.226-.756-1.605-.185-.607-1.744-.68-.252-1.094.254-1.434.689-1.738-.472-1.436-1.093-1.369-.405-.95-1.35-1.05-1.896-.765.23-.904-.47-.53.554Z"/>,<path d="m306.802 81.48.165-.226-.021-.582.349-.779.775-.536-.233-.557-.64-.073-.132-1.088.348-.585.762-.623.077-.794.465.277 1.566-.396.757.268 1.17-.004 1.636-.534.767.024 1.618-.221-.73.887-.778.352.134 1.039-.537 1.719-3.149 1.48-2.785 1.516-1.584-.564Z"/>,<path d="m322.141 72.86-.515.041-.58-.822.006-.22-.628.003-.421-.381-.296.038-.56-.415-1.058-.354.137-.692-.242-.5 1.977-.222.294.374.542.246-.286.357.757.487-.4.453.603.387.639.233.031.987Z"/>,<path d="m271.683 44.293.627-.82 1.184-.974.47-1.672-.909-.72-.087-1.89.923-1.333 1.411.024.495-.564-.518-.486 2.209-2 2.361-2.589 1.366.005.376-.792 2.68.228.21-.936.882-.058 4.115 1.664.038 2.19.48.553-2.447.403-1.379.993.222.87-5.008 2.367-1.036 2.003 1.012 1.002 1.36.79-1.306 1.604-1.48.332-.542 2.388-.807 1.332-1.726-.137-.805 1.128-1.646.065-.452-1.344-1.19-1.614-1.083-2.012Z"/>,<path d="m296.074 48.115 1.497.357.202.353.746-.17 1.39.34.14.667-.305.383.892.932.578.26-.085.256.959.25.41.38-.554.31-1.147-.049-.274.133.334.472.35.91-1.221.085-.438.312-.092.716-.566-.137-1.283.068-.373-.333-.533.248-.535-.205-1.12-.029-1.588-.341-1.436-.111-1.102.031-.78.386-.68.055-.026-.633-.44-.66.854-.29.008-.566-.395-.541-.061-.63 1.374.01 1.544-.536.33-.803 1.166-.455-.133-.637 2.393-.788Z"/>,<path d="m301.207 53.9.53.057.36-.323.432.071 1.475-.137.909.805-.356.288.118.442 1.134.068.506.617-.03.28 1.806.5 1.09-.225.879.666.83-.016 2.097.463.017.418-.578.745.314.784-.223.474-1.377.104-.733.397-.045.632-1.135.114-.946.46-1.332.075-1.225.53.072.762-.215-.044-.184-.28-1.469-.362-.375.353-.195-.155-2.21-.36-.099-.53-1.317.175-.528.784-1.102 1.05-.645-.243-.668.229-.635-.262.358-.155.638-.941-.1-.255.297-.113.14.196.838.042.377-.105-.265-.144.1-.212-.497-.362-.205-.594-.518-.233.102-.482-.643-.383-.585-.053-1.048-.443-.945.14-.34.21h-.6l-.357.333-1.05.136-.486.219-.66-.348-.912-.005-.88-.158-.614.305-.099-.381-.79-.387.278-.574.395-.37.31.083-.367-.639 1.292-1.183.705-.165.153-.4-.715-1.241.68-.055.779-.386 1.102-.031 1.436.111 1.588.341 1.12.029.535.205.533-.248.373.333 1.283-.068.566.137.092-.716.438-.312 1.22-.084Z"/>,<path d="m289.4 51.324.061.63.395.54-.008.568-.853.29.439.659.027.633.715 1.242-.153.399-.705.165-1.292 1.183.367.64-1.662-.63-1.024.2-.671-.146-.84.305-.718-.504-.584.193-.735-.786-1.058-.086-.135-.445-.975-.16-.212.368-.773-.294.089-.391-1.063-.124-.674-.458-.583-.908.11-.49-.352-.761-.516-.507.397-.38-.333-.723.972-.418 4.01-1.14 1.42.241.107.347 3.123.18 2.616-.022.73.152.34.438Z"/>,<path d="m280.149 59.558-.108.58-.801.004.275.308-.472.915-.27.24-1.245.036-.717.323-3.209-.478-.318-.495-1.405.248-.165.27-1.588-.24-.643-.26.217-.348-.055-.252.43-.079.72.395.202-.375 1.254.06 1.017-.254.682.043.443.291.133-.241-.202-.927.511-.18.501-.656 1.057.458.8-.582.5-.106 1.105.434.668-.074.655.268-.114.18.142.494Z"/>,<path d="m287.41 59.133.79.387.1.38-.87.3-.672.964-.86.964-1.14.268-.888-.062-1.621.586-1.175-.274-1.515-.785-.277-.48-.239-.016.472-.915-.275-.308.8-.003.109-.581 1.248.519 1.194-.174.114-.286 2.08-.35.333-.334.466-.087 1.523.432.304-.145Z"/>,<path d="m293.859 59.42.339-.21.945-.141 1.048.443.585.053.643.383-.102.482.518.233.205.594.497.362-.1.212.265.144-.377.105-.838-.042-.14-.196-.297.113.1.255-.638.941-.358.155-.254-.65.15-.607-.046-.624-1.712-1.867-.433-.139Z"/>,<path d="m296.154 63.306.635.262.668-.23.645.245.034.367-.69.306-.432-.134-.398 1.716-.836-.15-1.035-.516-1.675.33-.705.363-2.088-.074-1.093-.222-.551.104-.67-.833.33-.24-.351-.177-.447.319-.829-.413-.112-.587-.866-.334-.16-.453-.77-.559 1.14-.268.86-.964.673-.965 1.482-.603.88.158.912.005.66.348.486-.219 1.05-.136.358-.333h.6l.433.139 1.712 1.867.046.624-.15.608.254.649Z"/>,<path d="m293.68 48.903.134.637-1.166.455-.33.803-1.544.536-1.374-.01-.342-.438-.73-.152-.113-.363.152-.39-.63-.225-1.489-.25-.302-1.195 1.629-.436 2.385.091 1.397-.14.2.296.757.09 1.367.691Z"/>,<path d="m294.81 46.258.685.328.121.69.458.839-2.393.788-1.367-.69-.757-.091-.2-.296-1.397.14-2.385-.09-1.629.435.05-1.07.698-.893 1.34-.486 1.13 1.062 1.141-.027.273-1.092 1.212-.251 1.847.702 1.173.002Z"/>,<path d="m295.795 43.413.215.248-1.012.82.421 1.326-.61.451-1.172-.002-1.847-.702-1.212.25.165-.838-.523.18-.902-.506-.124-.817 1.799-.397 1.792-.206 1.543.235 1.467-.042Z"/>,<path d="m276.081 51.546.333.723-.397.38.516.507.352.76-.11.49.583.909-.635.148-.375-.163-.357.27-1.021.276-.528.354-1.034.31.25.423.15.6.725.341.803.612-.501.656-.51.18.2.927-.132.241-.443-.29-.682-.044-1.017.255-1.254-.061-.203.375-.72-.395-.429.079-1.524-.435-.292.309-1.21-.01.18-1.013.72-.974-2.05-.262-.67-.373.08-.623-.284-.321.161-.961-.239-1.49.855-.001.36-.535.354-1.303-.265-.48.277-.302 1.19-.077.263.314.966-.702-.326-.533-.065-.806 1.075.187.91-.216.025.55 1.437.33-.015.506 1.446-.267.8-.39 1.606.562.671.453Z"/>,<path d="m288.224 65.088.409.585.55-.104 1.094.222 2.088.074.705-.362 1.675-.331 1.035.517.836.15-.738.588-.52 1.018.46.811-1.225-.19-1.449.447-.015.708-1.293.134-1.002-.497-1.139.391-1.052-.04-.1-.941-.713-.457.234-.2-.154-.17.24-.452.541-.445-.69-.614-.128-.52.35-.322Z"/>,<path d="m293.39 77.796-.178.42-2.048.12.015-.235-1.735-.277.263-.604.777.479 1.107-.081 1.059.1-.035.248.775-.17m-4.747-8.588 1.052.041 1.139-.39 1.002.496 1.293-.134.015-.708.693.376-.44.89-.338.16-1.609-.175-1.722.37.986.8-.723.231-.792.002-.752-.733-.267.312.317.85.712.667-.536.312.792.655.704.413.021.803-1.315-.377.42.726-.904.149.54 1.255-.945.018-1.166-.619-.534-1.138-.249-.946-1.283-1.465-.096-.405.661-.69.085-.462.463-.206.028-.373.93-.126.543-.311.77.027.234-.248.271-.047Z"/>,<path d="m319.677 75.135-.682.24-.5-.362-1.654-.183-.61.22-1.618.222-.767-.024-1.636.534-1.17.004-.757-.268-1.566.396-.465-.277-.077.794-.762.623-.523-.645.539-.534-.868.12-1.19-.326-.977.818-2.159.16-1.151-.763-1.533-.048-.328.59-.983.169-1.375-.758-1.553.026-.843-1.414-1.039-.79.692-1.105-.901-.68 1.577-1.36 2.19-.057.598-1.081 2.71.188 1.71-.922 1.657-.402 2.353-.03 2.483 1.002 2.04.55 1.657-.22 1.224.127 1.68-.742 1.514-.068 1.37.699.242.5-.137.692 1.058.354.56.415-.974.405.444 1.632-.278.44.778 1.14m-26.533-6.623 1.45-.448 1.224.191.169.547 1.241.46-.259.348-1.689.078-1.793 1.206-.448-.662.02-.294.338-.16.44-.89-.693-.376Z"/>,<path d="m285.895 69.913-.028.373-.463.206-.085.463-.661.69-.242-.1-.028-.313-.788-.478-.124-.677.12-.97.194-.442-.239-.224-.096-.453.617-.7.09.267.383-.125.303.381.34.146.096.515-.18.484.201.61.59.347Z"/>,<path d="m279.559 61.861 1.515.785 1.175.274.531-.213.346.551.452.406-.548.535-.643-.315-.984.02-1.222-.236-.665.031-.308.295-.51-.326-.298.59 1.005 1.106 1.196.846.537.594 1.258.538-.156.242-1.337-.526-.825-.512-1.3-.423-1.197-1.047.287-.106-.648-.598-.027-.48-.914-.224-.436.613-.42-.476.083-.517.991.049.26-.24.484.232.558.028-.005-.398.494-.145.139-.575 1.132-.378Z"/>,<path d="m269.645 60.409.055.252-.217.348.643.26.726.038-.113.583-.627.24-1.052-.178-.308.573-.677.045-.247-.225-.797.482-.686.068-.612-.305-.488-.623-.68.223.022-.644 1.04-.8-.046-.361.648.13.39-.242 1.21.01.292-.31 1.524.436Z"/>,<path d="m264.595 56.707.284.32-.08.624-.411.03-.318-.123.154-.798.37-.053Z"/>,<path d="m264.756 55.746-.161.96-.371.054-.154.798-1.244-.648-.73.11-1.654-1.241-.661-.023-.206-.5 1.14-.281 1.04.112 1.32-.296.9.623.781.332Z"/>,<path d="m265.82 51.936.266.481-.354 1.303-.36.535h-.855l.24 1.49-.783-.331-.9-.623-1.318.296-1.041-.112.733-.39 1.245-2.093 1.946-.596 1.182.04Z"/>,<path d="m243.15 68.437.517-.362.58-.207.356.696.84-.002.244-.18.829.05.397.714-.657.385-.018 1.11-.231.208-.057.672-.615.117.57.853-.393.934.49.423-.194.386-.527.534.118.47-.571.37-.75-.2-.734.156.217-1.113-.133-.874-.637-.131-.34-.54.113-.93.567-.517.398-1.43-.032-.602-.284-.511-.063-.48Z"/>,<path d="m245.4 75.239-.12-.471.528-.534.195-.386-.49-.423.392-.934-.57-.853.615-.117.057-.672.23-.208.02-1.11.656-.385-.397-.713-.829-.05-.243.18-.84.001-.357-.696-.58.207-.517.362.072-1.013-.58-.617 2.011-1.027 1.74.257 1.91-.01 1.513.244 3.48-.028.567.553 2.618.646.517-.307 1.6.643 1.649-.184.076.826-1.348.947-1.822.3-.127.48-.874.788-.548 1.157.554.813-.822.635-.308.924-1.074.284-1.007 1.093-3.16-.005-.891.502-.544.538-.695-.118-.527-.48-.403-.819-1.328-.22Z"/>,<path d="m247.185 51.388.235 1.016-1.075 1.27-2.522.84-2.013-.214 1.154-1.485-.743-1.446 3.01-1.778.293.762-.293.762.88-.02 1.074.293Z"/>,<path d="m491.776 157.98 1.906 1.536-.54.342-1.8-1.025-.917-.753-.942-1.003-.196-.482.612.02.796.484 1.081.881Z"/>,<path d="m486.57 142.909.397.489-.994-.01-.54-.875 1.136.396m-.624-1.256-.214.262-1.054-1.232-.297-.85h.484l.512 1.138.569.682m-1.177.389-.555.031-.872-.144-.297-.219.09-.564.938.223.463.299.233.374m-1.724-2.636.334.452.06.285-1.115-.603-1.312-.984.212-.145 1.82.995m-3.555-1.42.567.464-.283.081-.622-.324-.585-.584.074-.237.849.6Z"/>,<path d="m507.57 184.983-1.241 1.74-1.1.567-.244-.373-.593-.205.82-1.17-.465-.783-1.53-.569.04-.515 1.027-.496.24-1.095-.066-.92-.576-.953.038-.25-.68-.588-1.119-1.258-.594-1.007.527-.112.775.79 1.106.37.402 1.266 1.03 1.498.03-.972.642.388.213 1.076 1.145.464.96.113.813-.542.721.164-.345 1.262-.432.83-1.086-.029-.38.432.132.612-.21.265m-10.265 4.962 1.22-.744.853-.738.632-1.06.54-.36.21-.794.998-.658.638 1.192 1.012-.576.41.6.002.6-1.459 1.706-.727.572.524.684-1.097.018-1.217.536-.38.93-.81 1.44-1.826 1.041-1.31-.03-.92-.47-1.546-.099-.239-.522.764-1.055 1.788-1.404.919-.268 1.021-.54Z"/>,<path d="m466.047 186.038.853.096.1 1.688-.487.49-.146 1.144-.497-.39-.988.992-1.169-.12-.876-1.218-.195-.939-.82-1.239.036-.652.93.126 1.374.49 1.885-.468m-30.635-12.22-1.508.73-1.233.328-.274.745-.525.578-2.1.161-1.258-.259-1.999.22-.845.759-.415-.064-1.397.854-1.991-.057-1.509-.908-.764-.27.03-.815.707-.194.241-.323-.05-.511.174-.99-.16-.842-.752-1.438-.233-.812.061-.81-.566-.925-.036-.418-.63-.567-.177-1.114-.813-1.126-.197-.606.625.615-.48-1.32.706.413.42.55-.023-.728-1.17-1.993.154-.823.292-.35.194-.712-.152-.83.587-1.024.108 1.083.6-.979 1.156-.475.693-.607 1.087-.522.647-.11.391.175 1.12-.53.863-.158.216-.312.377-.13.786.034 1.494-.416.774-.632.363-.76.834-.722.1-1.34.996-1.21.6 1.229.605-.284-.507-.672.446-.69.628.308.173-1.082.777-.7.343-.561.715-.242.022-.398.625.166.025-.357 1.313-.396 1.05.653.79.842 1.795.143-.302-.78.682-1.141.64-.372-.221-.355.618-.812.861-.502.728.169 1.195-.268-.026-.727-1.042-.468.757-.207.942.353.756.583 1.198.364.406-.144.882.437.83-.407.535.124.333-.273.653.703-.38.761-.54.575-.488.047.165.569-.923 1.41.101.401 1.131.786 1.095.456 1.76 1.332.402-.001.744.364.216.44 1.358.482.94-.486.566-1.394.609-1.912-.197-.688.102-.413-.164-.814.186-1.072.273-.289-.222-.475.614-1.535.036-.406.528-.532.402.695.098.892.355.172.06.598.517.723.107.805-.05.517.512 1.116.913-.536.47.602.683.555-.146.63.303 1.22.216.71.358.173.386 1.216-.137.737.46.965 1.542.743 1.959 1.295-.187.344.814.892.553 1.539.567-.312.577.616.348-.219.245 1.508 1.67 1.416 1.111 1.151.4 1.143-.062 1.691.678 1.209-.082 1.258-.63 1.928.03.815-.282 1.02-.628 1.293-1.054.7-.52 1.1-.473.704-.422 1.227-.549.71-.36 1.064-.183.98.072.449-.815.494-1.592.052-1.312.583-1.513 1.162-1.178-.63-.872-.25.221-.741-.777.269-1.246 1.03-4.226-1.124-.919-.877-.264-1.08-.33-.718-.7-.577-1.368-.171.468-.69-.344-1.056-.695.984-1.265.261.744-.786.215-.821.55-.697-.114-1.053-1.157 1.213-.889.486-.544 1.132-1.11-.586.043-.754-.89-1.032-.75-.533.267-.328-1.825-.862-.999-.04-1.368-.693-2.546.135-3.46.984-1.357-.095Z"/>,<path d="m372.32 117.3-.214 1.481-.596.405-1.237.326-.677-1.131-.252-2.044.644-2.309.983.79.662 1.002.688 1.48Z"/>,<path d="m411.698 102.119-1.166-.441-.041-1.223.7-.645 1.554-.398.818.033.318.543-.625.626-.33.821-1.228.684m-41.55-34.35-.114-.81.976-.371-1.28-2.47 2.817-.569.728-.317 1.026-2.546 2.822.468.79-.643.068-1.426 1.182-.133 1.082-.947.557-.117.373.993 1.196.754 2.028.534.982 1.146-.548 1.661.512.617 3.605.442 1.719.886.879.158.647 1.311.835.845 1.568-.033 2.936.318 1.891-.197 1.404.211 2.104.864 1.72-.001.63.442 1.656-.763 2.298-.494 2.132-.054 1.662-.5 1.02-.762.996-.478-.23-.47-.455-.546.747-.917 2.262.417 1.417-.755 2.169-.551 1.042-.94 1-.405 2.067-.189 1.122.16.156-.505-1.29-.994-1.14-.455-1.094.525-1.403-.221-.805.18-.366-.581 1.697-2.494 1.707.537 2.005-.898-.013-.626 1.284-1.509.79-.456-.017-.785-.78-.338 1.174-.707 1.768-.257 1.885-.038 2.129.423 1.249.524 1.907 2.92.526 1.393 2.475.454 1.685 1.012.576 1.336 2.161.001 1.233-.56 2.35-.42-.747 1.28-.552.52-.488 1.558-.956 1.384-1.726-.252-1.221.503.375 1.218-.205 1.68-.727.038.01.723-.92-.84-.565.797-2.196.613.222.75-1.23-.052-.675-.445-.977 1.008-1.568.765-1.158.912-1.988.413-1.047.665-1.532.388.756-.659-.297-.554 1.126-.956-.751-.745-1.24.502-1.606.99-.876.917-1.395.069-.725.663.75.962 1.163.234.048.638 1.125.415 1.594-1.015 1.262.554.92.037.23.745-2.013.398-.664.768-1.383.713-.73.995 1.53.782.559 1.399.866 1.303.965 1.093-.023 1.056-.892.389.34.758.837.442-.218 1.158-.362 1.127-.794.128-2.19 3.406-1.322 1.697-3.934 2.51-1.602.163-.87.632-.491-.462-.805.707-1.988.712-1.504.219-.486 1.502-.788.083-.373-1.032.337-.55-1.908-.456-.673.232-1.431-.37-.678-.577.225-.82-1.3-.26-.685-.533-1.213.758-1.383.164-1.134-.007-1.5.556.215 1.626-.759-.038-.17-.923-1.043.415-1.672-.796.414-1.182-.901-.275-.34-1.31-1.5.237.17-1.688 1.347-1.187.016-2.262-.621-.339-.475-.837-.832.106-1.534-.213.48-.597-.666-.884-1.014.598-1.193-.349-1.64.906-1.294 1.057-1.147.178-.623-.382-.751-.035-1.016-.329-.769.361-.94 1.057-.12-1.12-.867.3-1.658-.14-1.61-.326-1.154-.624-1.105-.28-.477-.684-.8-.204-1.435-.927-1.14-.437-.59.34-1.977-.994-1.397-.9-.399-1.568 1.021.19.047-.725-.566-.728.144-1.16-1.529-1.667-2.339-.576-.42-1.092-1.052-.663-.253-.409-.213-.81.05-.553-.864-.324-.468.143-.36-1.316.405-.325-.196-.333 1.357-.672.983-.278 1.506.19.537-.908 1.825-.169.507-.564 2.24-.77.2-.322Z"/>,<path d="m429.195 93.306-.856 2.28-.61 1.167-.75-1.2-.161-1.055.837-1.397 1.138-1.077.649.424-.247.858Z"/>,<path d="m270.852 61.307.862.202.165-.27 1.405-.248.318.495 2.034.367-.154.7.34.606-1.132-.207-1.156.505.079.706-.174.405.466.724 1.333.717.716 1.175 1.582 1.146 1.115-.008.346.314-.399.283 2.318.945 1.22.741.147.266-.266.51-.79-.665-1.235-.234-.598.92 1.028.527-.17.742-.593.085-.76 1.22-.593.11.006-.436.29-.762.31-.304-.99-1.542-.59-.177-.42-.614-.915-.258-.615-.572-1.052-.092-2.413-1.568-.967-.82-.443-1.405-.708-.165-1.157-.47-.655.192-.821.66-.592.105.163-.618-.77-.18-.367-1.1.493-.434-.419-.534.06-.402.611.305.686-.068.797-.482.247.225.677-.045.308-.573 1.052.178.627-.24.113-.583m6.142 12.444 1.08-.124-.513 1.12.213.44-.298.731-1.088-.535-.723-.154-1.985-.723.199-.73 1.664.13 1.45-.155m-8.605-3.92.71-.44.854 1.009-.2 1.881-.646-.09-.58.475-.54-.377-.056-1.716-.325-.813.783.071Z"/>,<path d="m270.111 49.802-.91.216-1.075-.187-.577-.79-.043-1.453.645-.811 1.253-.088.499-.393 1.144-.4-.048.73-.421.464.17.398.772.215-.348.537-.424-.155-1.024 1.024.387.693m3.483-1.605.454.713-.853 1.152-1.489-.803-.198-.59 2.086-.472Z"/>,<path d="m247.185 51.388-1.075-.293-.88.02.294-.762-.293-.762 1.192-.06 1.524.88-.762.977m4.415.659.212-.826-.975-.896-1.726-.25-.34-.385.517-.635-.467-.392-.766.672-.083-1.37-.719-.726.517-1.47 1.105-1.154 1.135.113 1.716-.12-1.52 1.539 1.45-.195 1.557.007-.37 1.16-1.279 1.274 1.47.09 1.38 1.828.974.229 1.28 2.182 1.724.27-.173.91-.725.417.568.736-1.28.745-1.902-.013-2.421.39-.663-.28-.94.667-1.316-.161-1 .543-.756-.284 2.086-1.494 1.273-.307-2.232-.238-.402-.566 1.486-.441-.779-.766.27-.932 2.114.129Z"/>,<path d="m235.365 33.485-.328.92 1.607.97-1.85 1.085-5.327 1.234-5.841-.66 1.4-.628-3.095-.696 2.518-.275-.061-.418-2.985-.33.96-.927 2.156-.21 2.217.964 2.16-.774 1.79.402 2.32-.758 2.36.101Z"/>,<path d="m321.998 68.465.4.048.977.863.63.098.244-.362.849-.574.748.75.723 1.008.663.067.438.383-1.172.115-.247 1.104-.245.498-.521.333.038.704-.354.071-.887-.745.49-.703-.42-.418-.533.105-1.678 1.05-.031-.987-.639-.233-.603-.387.4-.453-.757-.487.286-.357-.542-.246-.294-.374.348-.232 1.06.409.767.084.193-.166-.7-.77.37-.196m-.373 4.436-.975-.189-.718-.656-.226-.537.296-.038.421.381.628-.003-.006.22.58.822Z"/>,<path d="m312.825 66.226.173-.168 3.296.473 1.937.682.249.264.862-.223 1.327.298.435.583.894.33-.369.196.7.77-.193.166-.767-.084-1.06-.41-.348.233-1.977.222-1.37-.699-1.515.068.212-.608-.355-.97-.822-.524-.788-.164-.521-.435Z"/>,<path d="m427.853 109.931-.726-1.083 1.218.052.494.512-.377 1.229-.61-.71m2.493 3.874.357-.399.157-.882.784-.084-.23.957 1.053-1.372-.135 1.356-.511.468-.446.898-.447.421-.875-.983.293-.38m5.39 2.227.23 1.743-.485 1.302-.52-1.45-.665.721.454 1.048-.407.667-1.674-.826-.4-1.03.434-.675-.9-.673-.448.59-.669-.055-1.052.793-.236-.416.558-1.199.896-.4.776-.535.503.643 1.081-.389.232-.635 1.005-.038-.084-1.1 1.153.675.219 1.24m-11.196-1.283-1.892 1.35.697-.995 1.027-.879.854-.983.746-1.413.253 1.16-.939.783-.746.977m5.45-12.67-.231.59.485 1.02-.374 1.181-.838.472-.225 1.146.318 1.133.754.157.63-.169 1.776.789-.136.774.464.342-.147.655-1.109-.698-.525-.747-.366.522-.906-.852-1.291.21-.708-.314.072-.588.444-.361-.424-.33-.184.513-.702-.817-.213-.62-.053-1.36.573.467.147-2.225.464-1.289.86.002.877.406.439-.37.13.361m-.425 9.684-.22-.677.853.44.905-.002-.027.595-.659.603-.903.428-.05-.661.1-.726m4.928-1.062.399 1.588-1.097-.377.03.477.347.878-.676.318-.06-1-.428-.074-.222-.861.837.114-.019-.539-.87-1.086 1.367.031.392.53Z"/>,<path d="m398.344 118.806.247-.254 1.16.623.113.73.939-.17.464-.584.328.133.84.859.596.952.082.958-.152.647.242 1.33.501.392.56 1.258-.027.481-1.009.095-3.028-2.182-.167-.725-.822-.951-.196-1.178-.513-.776.156-1.035-.314-.603m25.31 3.31-1.232-.24h-1.635l-.493 1.617-.548.494-.729 1.978-1.16.303-1.345-.398-.682.124-.829.72-.908-.103-.917.29-.973-.804-.237-.95 1.042.487 1.099-.266.286-1.204.607-.268 1.705-.308 1.718-2.025.648.737.299-.484.68.045.147-1.609 1.095-.989.717-1.112.575-.004.731.72.065.617 2.123.825-.101.557-.954.07.254.695-1.048.484Z"/>,<path d="m420.197 120.252-.147 1.609-.68-.045-.299.484-.648-.737.564-.532 1.21-.779Z"/>,<path d="m275.636 61.853 1.175.11.717-.322 1.244-.035.271-.24.24.015.276.48-1.132.378-.139.575-.494.145.005.398-.558-.028-.484-.232-.26.24-.991-.049.316-.129-.34-.605.154-.7Z"/>,<path d="m296.664 29.775-.208.995 2.179.948-1.313 1.072 1.654 1.62-.957 1.219 1.28 1.058-.581.927 2.105.974-.535.726-4.366 2.637-2.581.113-2.501.521-2.314.3-.824-.776-1.377-.467.317-1.4-.691-1.284.678-.828 1.29-.893 3.253-1.543.95-.297-.148-.601-1.978-.673-.48-.553-.038-2.19-4.115-1.664.852-.376 1.58.752 1.858-.07 1.527.343 1.356-.63.697-1.042 2.208-.482 1.826.566-.603.998Z"/>,<path d="m288.083 58.19-.395.37-.277.573-.304.145-1.523-.432-.466.087-.334.334-2.079.35-.114.286-1.194.174-1.248-.52-.142-.492.316-.494.63.025.486-.148.038-.132.272-.067.093-.324.327-.062.22-.256.424-.002.08.086.585-.193.718.504.84-.305.671.147 1.024-.201 1.352.546Z"/>,<path d="m277.358 55.315.674.458 1.063.124-.089.39.773.295.212-.367.975.159.135.445 1.058.086.654.7-.424.002-.22.256-.327.062-.093.324-.272.067-.038.132-.486.148-.63-.025-.202.313-.655-.268-.668.074-1.104-.434-.5.106-.8.582-1.058-.458-.803-.612-.725-.341-.15-.6-.25-.423 1.034-.31.528-.354 1.021-.275.357-.271.375.163.635-.148Z"/>,<path d="m307.81 107.489-.15-.57.612-2.09.14-.945.448-.436 1.048-.234.72-.812.825 1.647.392 1.305.78.693 1.941 1.343 2.006 2.12.7.428-.43.348-.609-.124-.486-.46-.585-.834-.63-.457-.368-.49-1.238-.571-.975-.017-.343-.297-.834.334-.863-.646-.444 1.062-1.656-.297Z"/>,<path d="m457.791 72.276-1.315 1.432.024 1.468-.536 1.135.248.712-.74 1.003-1.818.669-2.5.087-2.026 1.624-.956-.547-.059-1.063-2.473.314-1.684.67-1.665.027 1.442 1.046-.949 2.418-.919.598-.688-.553.349-1.281-.9-.414-.578-.975 1.344-.439.746-.894 1.43-.735 1.044-.972 2.83-.424 1.522.29 1.488-2.528.948.68 2.895-1.976.894-1.739-.244-1.599.601-.898 1.512-.262.776 1.973-.043 1.153m3.881-6.798 1.007-.603.316 1.597-2.11.389-1.246 1.412-2.236-.972-.774 1.556-1.582.022-.195-1.414.703-1.095 1.52-.079.414-1.967.42-1.108 1.672 1.48 2.091.782m-17.41 14.93.786-.85.809.165.584-.598 1.045.307.182.488-.8.86-.585-.456-.729.33-.377.833-.927-.405.011-.675Z"/>,<path d="m173.274 156.696.421.79-.095 1.931 1.502.273.58-.278.96.385.267.424.133 1.304.166.547.53.063.534-.23.511.258v.782l-.705 2.917-1.29 1.09-1.125.228-1.597-.217-1.434-.387 1.4-2.162-.204-.628-1.465-.555-1.738-1.051-1.162-.216-2.615-2.32.56-1.704.036-.765.682-1.251 2.479-.414 1.32.02 1.325.727.024.439Z"/>,<path d="m329.956 100.978 1.576 3.34-1.029.383-.275.631-.033.485-1.416.6-2.273.664-1.273 1.003-.626.079-.427-.084-.831.59-.907.274-1.553.154-.31.376-.374.104-.22.361-.704-.031-.454.193-.985-.072-.37-.831.041-.778-.232-.42-.279-1.051-.408-.585.284-.069-.146-.65.173-.274-.063-.62.624-.454-.146-.6.377-.699.584.37.386-.128 1.641-.033.26.142 1.376.142.545-.07.355.473.664-.237 1.02-1.493 1.327-.64 4.1-.545Z"/>,<path d="m305.715 86.248 1.583.227.615-.438.34-.512 1.085-.197.234-.476.47-.242-1.417-1.422 2.849-.714.27-.214 1.714.385 2.119.996 4.01 2.86 3.911.251.355.678 1.005-.037.557 1.226.7.325.244.5.969.597.086.587-.142.474.18.478.41.398.401.815.43.282.394-.1.87 2.312 4.275.717.287-.3.651 1.007-.948 2.845-4.266 1.422-4.101.545-1.328.64-1.019 1.493-.664.237-.355-.474-.545.071-1.375-.142-.26-.142-1.642.033-.386.128-.584-.37-.377.7.146.599-.624.454-.185-.607-.429-.429-.11-.567-.734-.51-.758-1.192-.401-1.16-.984-.978-.634-.233-.942-1.356-.165-.988.061-.843-.816-1.577-.667-.555-.768-.294-.468-.815.078-.322-.395-.737-.415-.318-.556-1.058-1.591-2.123-.708.007.46-1.847Z"/>,<path d="M186.794 239h.724l2.117-.306 2.145.306 1.755.613.613.864.222 1.338-4.512.808-5.655.613-3.37-.083-1.867-.474.251-.585 3.036-.39 1.226-.474 1.532-1.143 1.783-1.087m-25.073 3.142 6.267.195 1.81-1.087 1.477.585-.835 1.365-2.981-.195-3.175.084-1.783-.474-.78-.473m-10.846-12.781.975-.167 1.644.055.418-.724.055-1.672.808-.67 1.31-.222.751.53 1.421 1.783.39.64.167.642-.64 1.087-3.26.474-1.866-.028.696-.558-3.259.39-1.086-.418-.084-.585 1.56-.557m-40.412.888.891-.25 5.432.501 1.56-.167.836.808-1.114-.111-5.404.083-1.449-.278-.752-.586m-28.858 2.509.306-.474 3.538.474 1.699-.251-.808.501-1.337.363-1.978-.112-1.42-.501m-6.63-.279 1.03-.307 3.594.892-2.674-.195-1.95-.39m-51.811 7.302.863-.53 2.647.223 1.42.446 1.087.501.39.641-2.73.196-1.867-.502-.89-.585-.92-.39M512 248.48V256H0v-7.519l1.339-.816 2.562.446 1.667-.503.363.026 2.058.593 2.124-.674 4.179-.25 4.165.975 4.04.362 3.203.446 5.487.335 4.095-.39 6.045.278 3.426.446 7.716-.808.306-.669-5.599-.056-4.596-.334-1.197-.558-3.817-.306.251-.641 1.059-1.115-.279-.585-2.368-.39-1.086-.502-2.2-.446 3.453.084 3.287-.223 2.062.474 2.534-.418 2.34-.53 1.142-.474-.501-.585-3.928-.808-8.245-.418-.92-.53-1.837-.445-1.115-.502-.445-1.616 1.977.585 4.597-.335 1.17.613 2.256-.139 3.677-.697 1.615-.473 2.145-.14-.056-.53-.501-.529.418-.501 1.838-.251.836.474 2.173-.279 1.643-.362 3.956-.168 5.18-.947 2.09.195 2.117-.195 1.894.25 1.95-.027 1.866-.195 4.04.278h6.155l1.95-.055 1.449-.418 1.727-.223 1.783.306 1.699-.25 1.532-.502.92.446.5.501.92.474 1.476-.418 1.7.53 1.921.167 1.644.39 2.005-.084 1.81-.25 2.146.055 3.872.446.752-.613-1.616-.975-1.838-.112-.808-.53-.808-1.588 1.086.195 1.867.084 1.838-.084 1.672.223 1.448.418.613.502 1.922.084 5.543-.641 1.449.334 1.894-.112 1.225-1.086 1.142.64 1.644.251 1.783-.139 1.17.557 3.593.223 1.7.307 1.114-.53.557-.501 1.42.557 1.95-.14 1.449.307.975.474 1.894-.14 2.925-.668 5.543-.557 1.393-.307.835-.446.334-.613-.167-.585-1.755-2.174-.083-.557.14-.558 1.225-1.114.223-.558-.446-1.17.696-.641 1.7-.948 2.117-.864.557-.613.78-.39.891-.362 1.365-.084.891-.446 1.003-.278 1.17-.168 1.03-.362.809-.446 1.114-.167.835.362-.529.474-1.448.418-.613.307-1.059-.223-1.17.139-2.005.697-.697.418-.195.557.084.53.668.473-.974.335-1.338.111-2.507 1.533-.222.53.501.585.752.446 2.256.78.585.557.725 1.087.668.474.418.53.195 1.31.418.529.111.557.446.558-.195.752-1.616 1.059-1.894.195-.64.502-.864.473-2.145.53-5.599.836-1.142.585-9.443.112.446.557 2.172.25 1.588.391.892.502-1.588.446-2.451-.14-2.034.363-.14 1.142 1.672.474.307.53 1.81.529 3.009.223 7.186 1.282 3.538.223 3.482.39 5.07.892 1.392.669.697.53 1.727-.503 4.819-.864 5.487-.752 3.538-.028 3.482.195 2.869.335.92-.613 1.977-.418 3.593-.028 5.488-.613 6.1-.446 2.2-.363-1.002-.501-.613-.502v-.53l-2.758.056-2.924.223h-2.786l-.39-.53.195-1.058.64-.307 4.43-.669 3.454-.836 1.281-.557 4.847-.557 2.2-.056 2.09-.195 3.482-.613 3.537-.78 2.591-.892.418-.558-1.504-.334.501-.585.947-.446 3.036-.613 1.449-.446 1.114-.558.696-.669 1.031-.39 1.7.084.696.474 1.699.055.056-.53.724-.556 1.532.139.362.53 1.7.083 3.62-.418 1.616.084.613.585 1.56-.474 4.652-.641 3.036-.557 1.226-.307.863-.502 1.059.363 1.476-.195 1.838 1.17 1.616-.279.64-.557 1.45-.39 1.865.084.558.53 1.17-.53 1.532-.168 3.175-.028 3.12.251.668.474.92.418 1.56-.25 4.874-.084 2.925-.363 1.254-.39 2.785-.39 1.087-.39.78-.78.807-.474 1.477.223.557.501 1.225.335 1.477-.112 1.002.502 1.059.362 1.449-.334.5-.613 1.282-.251 1.477-.474 3.064-.474 3.398-.947 1.337.167 2.2-.892 1.338.028 1.17-.334.278-.502 1.198-.39 1.17-.279 2.73-.334 2.59.223 1.143.39.139.613 2.117.864 1.699.167 2.117.78 1.365.084 1.142-.279 1.226-.585 1.337.307 2.73.334 2.813.112 1.17 1.477-.056.362-.167.64-1.365.363-1.114.53.195.557 1.588-.028-.195.558-1.393 1.114 1.086.446 1.644.14 1.643-.251.78-.558.474-.53 1.671-.863.362-.502.752-.696 2.507-.195 2.87-.39.696-.558.418-.53.974-.529 2.591-.64.78-.475 1.838-.473 1.421.139 2.674-.307 1.56.084 1.03-.39.725-.948 1.198 1.06 1.198.278 1.365.111 1.364-.167 2.786.14.891-.14 1.198.084 1.087.306 1.28-.195h1.533l1.31-.195 1.475.195 1.672-.947.975-.39 1.783-1.06 2.005.586 2.758 1.365 2.702.028 3.064-.362 2.145-.808 1.588-.056 1.058-.307 1.114.28 1.727.89 1.56-.055.975.362 1.7.363 1.782.14 1.476-.112 2.062-.892 1.281-.112 2.758.335 1.337-.223h1.281l2.563.279 2.813-.474 3.064-.056 2.591-.25.39-.697.056-.586.891.39.25.641.474.586.585.473 1.198.251 7.967-.223 3.454.167 1.003.446-.279.53.92.418 3.119.697 5.21.696 1.615.028.919-.474 3.593 1.17 3.37.307.697.558 1.616.334 1.086.502 1.588.223 4.875.028 1.699.111 1.588.195 2.952.613 1.003.418-.167.558-.752.501-1.81 1.728-1.867.223-.836.502-1.838.306-.64.558-2.006.975-.948 1.115-.139.64.028.53.808.558.306.53.669.5 2.646.196.557.613-4.735.53-2.702.055-1.198.808-.25.67-1.366 1.058 1.894.474.725.585 1.225.53 1.727.474 4.123.891 3.26.446.723.697 4.095.307 1.337.53 3.928-.363 5.709.788Z"/>,<path d="m302.552 78.023.306-.35 1.024.018 1.293-.424-.96.606.103.266-.708.083-.13-.231-.661.106-.267-.074Z"/>,<path d="m302.552 78.023.267.074.66-.106.131.23.556-.132.196.164-1.457.578-.697-.184-.332-.572.676-.052Z"/>,<path d="m252.914 77.983.536.91.085.866.49 1.501.376.302-.261.553-1.861.24-.644.526-.823.124-.06 1.053-1.663.563-.544.712-1.165.382-1.42.217-2.297 1.05.013 1.684h-.217l.033.762-.88.046-.458.324h-.646l-.514-.185-1.197.153-.463 1.108-.444.104-.67 1.793-1.976 1.535-.47 1.964-.582.639-.171.512-3.228.112.067-.66.547-.387.465-.741-.092-.481.49-1.004.79-.904.48-.23.376-.829.034-.757.513-.88.948-.518.901-1.452.741-.567 1.323-.157 1.12-.972.713-.379 1.188-1.187-.356-1.77.54-1.223.191-.75.915-.96 2.482-1.238 1.397-2.346 1.047.007.858.604 1.352-.098 1.473.314.618.015Z"/>,<path d="M308.432 96.711h-16.876V86.416l-.427-1.146.366-.878-.22-.608.515-.682 1.892-.024 3.44 1.018 1.094-.45.586-.408 1.254-.117 1.011.18.388.705.33-.465 1.14.336 1.108.08.7-.358.935 2.444-.4.571-.306 1.075-.387.74-.331.248-1.116-1.093-1.015-2.039-.146.13.59 1.5.872 1.43 1.075 2.215.982 1.576 1.277 1.575-.283.248.046.924 1.906 1.568Z"/>,<path d="M291.556 96.711v2.84l-1.636.005-.018.596-11.344-5.446-2.442 1.306-.8-.78-2.25-.614-.624-.89-1.123-.661-.665.26-.505-.793-.054-.61-.84-1.036.564-.594-.124-.894.18-.779-.102-.648.25-1.16-.077-.661-.46-1.256.694-.33.123-.6-.152-.59.977-.548.438-.455.693-.409.08-1.092 1.671.49.597-.123 1.188.237 1.888.636.666 1.264 3.281.871 1.515.707.694-.368.681-.655-.331-1.09.446-.69 1.025-.667.979-.194 1.924.29.485.637.53.006.452.242 1.413.167.347.47-.515.682.22.608-.366.878.427 1.146v10.295Z"/>,<path d="m323.967 116.618-4.019 4.269-1.853.062-1.267 1.003-.912.026-.389.448h-.972l-.573-.48-1.3.594-.42.593-.948-.112-.315-.164-.783.025-1.8-1.208h-.99l-.486-.468v-.798l-.738-.239-.84-1.547-.65-.33-.25-.569-.72-.693-.874-.102.485-.81.754-.035.213-.434-.019-1.279.42-1.488.674-.399.143-.581.61-1.087.858-.704.578-1.401.227-1.221 1.656.297.444-1.062.863.646.834-.334.343.297.975.017 1.238.57.368.491.63.457.585.834.486.46-.98 1.296.133.825.794.024.343-.1.315.253-.31.503 1.05 1.468.543.508 4.65 1.688 1.196-.009Z"/>,<path d="m316.233 110.162.61.124.428-.348.337.44-.045.591-.812.34.611.39-.524.76-.315-.253-.343.1-.794-.023-.134-.825.981-1.296Z"/>,<path d="m325.615 111.772-.014 2.786-1.634 2.06-1.196.009-4.65-1.688-.543-.508-1.05-1.468.834-1.265.463.263.279.588.641.595.706.005 1.341-.364 1.548-.169 1.252-.441.705-.094.508-.26.81-.05Z"/>,<path d="m304.219 129.351-4.457.092-1.35.61-.343-.145.011-1.073.33-.543.08-1.142.3-.66.543-.743.546-.377.458-.505-.57-.193.086-1.663.585-.388.905.318 1.144-.333 1.001.004.875-.654.674.987.792 2.346-.518 1.037-1.107 1.518.015 1.507Z"/>,<path d="m299.263 129.614.564.802-.082.837-.41.18-.756-.093-.435.81-.864-.112.132-.778.195-.11.053-.846.409-.396.344.145.85-.44Z"/>,<path d="m282.396 67.342-1.258-.538-.537-.594-1.196-.846-1.005-1.106.298-.59.51.326.308-.295.665-.031 1.222.236.984-.02.643.315.516-.004-.357.626.686.547-.207.668-.6.193-.463.33-.209.783Z"/>,<path d="m287.83 67.811.712.457.101.94-.27.047-.235.248-.77-.027-.543.31-.93.127-.59-.347-.202-.61.18-.484.182.012.063-.291 1.643-.358.66-.024Z"/>,<path d="m282.78 62.707 1.09-.373.888.062.77.56.16.452.866.334.112.587.83.413.446-.319.35.177-.329.24.26.248-.35.323.127.52.691.613-.542.445-.24.452.155.17-.234.2-1.143.107-.048-.107.33-.515-.202.008-1.164-.846-.255.078-.197.472-.34.103.117-.122-1.01-.449-.585-.44.335-.064.207-.668-.686-.547.357-.626-.516.004.548-.535-.452-.406-.346-.55Z"/>,<path d="m284.545 67.43-.383.125-.09-.267-.617.7.096.453-.298-.11-.398-.465-.615-.282.365-1.024.728-.46.585.44 1.01.449-.383.44Z"/>,<path d="m285.284 68.472-.096-.515-.34-.146-.303-.381.266-.32.34-.102.197-.472.255-.078 1.164.846.202-.008-.33.515.048.107-1.159.275-.063.291-.181-.012Z"/>,<path d="m168.277 112.697.818-.185.299.05-.057 1.06-1.188.156-.256-.128.413-.391-.029-.562Z"/>,<path d="m299.853 123.01-1.252-.946-.338-.607-.792.3-.658-.093-.38.239-.64-.173-1.09-1.625-1.063-.563-.359-.853-.592-.615-.957-.74-.013-.463-1.746-1.13.925-.424.366-1.27.39-.659 1.026-.195.977 1.22.39.123.513-.244 1.025.049.196.293h1.416l.049-.293.732-.269.147-.415.537-.293 1.196.83.733-.146.708-1.026.781-.781-.122-.855-.342-.415.855-.073.097-.317.66.097-.171 1.05.17 1.026.733.561.171.488-.024.709.196.028.017 1.109-.213.434-.754.035-.485.81.874.102.72.693.25.569.65.33.84 1.547-1.84 1.787-.874.654-1-.004-1.145.333-.905-.318-.585.388Z"/></svg>